<svg id="svg" version="1.1" xmlns="http://www.w3.org/2000/svg" xmlns:xlink="http://www.w3.org/1999/xlink" width="400" height="400" viewBox="0, 0, 400,400"><g id="svgg"><path id="path0" d="M180.278 99.530 C 179.106 99.605,178.148 99.821,178.148 100.009 C 178.148 100.219,177.800 100.220,177.250 100.011 C 176.757 99.823,174.382 99.747,171.973 99.843 C 169.564 99.938,165.676 100.091,163.333 100.184 C 160.991 100.276,157.991 100.439,156.667 100.546 C 155.343 100.654,153.259 100.816,152.037 100.908 C 149.973 101.064,147.934 101.260,144.259 101.657 C 143.444 101.746,141.944 101.892,140.926 101.982 C 139.907 102.073,139.074 102.185,139.074 102.232 C 139.074 102.352,137.945 102.504,135.370 102.731 C 132.588 102.976,130.456 103.253,129.259 103.525 C 128.750 103.641,127.634 103.813,126.778 103.907 C 125.923 104.001,124.815 104.233,124.315 104.423 L 123.407 104.768 123.375 216.273 L 123.342 327.778 157.045 327.778 L 190.747 327.778 190.652 288.968 L 190.556 250.158 192.373 250.284 C 193.583 250.369,194.293 250.249,194.497 249.928 C 194.680 249.639,194.806 249.610,194.809 249.856 C 194.819 250.550,215.889 250.210,221.667 249.422 C 223.480 249.174,226.285 248.874,227.037 248.847 C 227.343 248.836,227.843 248.728,228.148 248.607 C 228.454 248.487,229.120 248.349,229.630 248.302 C 230.139 248.255,230.972 248.116,231.481 247.993 C 233.132 247.596,234.617 247.324,235.185 247.315 C 235.491 247.310,235.942 247.148,236.187 246.955 C 236.433 246.761,236.797 246.703,236.995 246.826 C 237.194 246.949,237.454 246.891,237.573 246.699 C 237.692 246.506,238.703 246.234,239.821 246.094 C 240.938 245.955,241.852 245.698,241.852 245.525 C 241.852 245.351,242.085 245.298,242.370 245.407 C 242.655 245.517,242.998 245.428,243.133 245.210 C 243.267 244.993,243.867 244.815,244.466 244.815 C 245.065 244.815,245.556 244.634,245.556 244.414 C 245.556 244.193,245.764 244.082,246.019 244.168 C 246.273 244.253,247.226 243.946,248.136 243.486 C 249.046 243.025,249.920 242.729,250.080 242.827 C 250.239 242.925,250.828 242.759,251.388 242.458 C 252.512 241.854,253.597 241.428,254.438 241.261 C 254.740 241.201,255.045 240.975,255.118 240.759 C 255.190 240.543,255.401 240.460,255.587 240.575 C 255.773 240.690,255.926 240.580,255.926 240.331 C 255.926 240.081,256.030 239.981,256.158 240.109 C 256.286 240.236,256.911 240.065,257.547 239.728 C 258.183 239.390,258.951 239.073,259.253 239.022 C 259.554 238.971,259.860 238.753,259.932 238.539 C 260.003 238.324,260.298 238.148,260.586 238.148 C 260.875 238.148,261.111 237.981,261.111 237.778 C 261.111 237.574,261.236 237.425,261.389 237.447 C 261.967 237.531,263.333 236.936,263.333 236.602 C 263.333 236.410,263.490 236.349,263.681 236.467 C 263.872 236.586,264.200 236.387,264.410 236.026 C 264.620 235.666,264.797 235.524,264.804 235.713 C 264.810 235.901,265.231 235.664,265.741 235.185 C 266.250 234.707,266.667 234.460,266.667 234.636 C 266.667 234.812,266.911 234.633,267.210 234.237 C 267.510 233.842,267.760 233.652,267.766 233.814 C 267.783 234.245,271.111 231.885,271.111 231.442 C 271.111 231.236,271.264 231.162,271.452 231.278 C 271.639 231.394,272.122 231.070,272.524 230.559 C 272.926 230.048,273.430 229.630,273.643 229.630 C 273.857 229.630,274.292 229.259,274.609 228.806 C 274.926 228.354,275.185 228.116,275.185 228.279 C 275.185 228.442,276.264 227.502,277.582 226.190 C 278.900 224.879,280.063 223.890,280.166 223.993 C 280.269 224.096,280.468 223.881,280.608 223.515 C 280.748 223.150,281.507 222.269,282.293 221.558 C 283.080 220.848,283.641 220.184,283.541 220.084 C 283.441 219.984,283.771 219.577,284.275 219.180 C 284.780 218.784,285.104 218.316,284.996 218.141 C 284.888 217.966,285.094 217.651,285.455 217.441 C 285.816 217.231,286.003 217.054,285.870 217.048 C 285.737 217.042,286.071 216.557,286.611 215.971 C 287.151 215.384,288.009 214.093,288.519 213.100 C 289.028 212.108,289.584 211.194,289.754 211.070 C 289.924 210.945,290.064 210.741,290.064 210.615 C 290.067 209.910,290.505 208.889,290.806 208.889 C 290.998 208.889,291.052 208.722,290.926 208.519 C 290.800 208.315,290.874 208.148,291.089 208.148 C 291.305 208.148,291.481 207.815,291.481 207.407 C 291.481 207.000,291.630 206.667,291.812 206.667 C 292.134 206.667,292.774 204.905,292.653 204.352 C 292.620 204.199,292.759 204.074,292.963 204.074 C 293.167 204.074,293.333 203.751,293.333 203.355 C 293.333 202.960,293.500 202.533,293.704 202.407 C 293.907 202.282,294.074 201.849,294.074 201.447 C 294.074 201.044,294.343 200.304,294.672 199.802 C 295.001 199.300,295.147 198.889,294.997 198.889 C 294.847 198.889,294.926 198.646,295.172 198.350 C 295.418 198.053,295.521 197.650,295.400 197.455 C 295.279 197.260,295.338 197.044,295.530 196.976 C 295.723 196.908,295.948 196.435,296.031 195.926 C 296.114 195.417,296.300 194.732,296.444 194.404 C 296.588 194.076,296.759 193.409,296.823 192.922 C 296.887 192.435,297.053 191.770,297.192 191.444 C 297.331 191.118,297.416 190.701,297.382 190.518 C 297.348 190.335,297.352 190.102,297.392 190.000 C 297.570 189.543,297.805 188.205,297.967 186.728 C 298.064 185.845,298.220 184.999,298.313 184.848 C 298.939 183.835,299.265 167.413,298.751 162.778 C 298.441 159.975,297.927 156.852,297.777 156.852 C 297.725 156.852,297.648 156.435,297.607 155.926 C 297.481 154.374,296.565 150.741,296.299 150.741 C 296.162 150.741,296.032 150.532,296.010 150.278 C 295.918 149.177,295.210 146.914,294.844 146.547 C 294.624 146.328,294.444 145.843,294.444 145.471 C 294.444 144.671,290.413 136.167,289.949 135.988 C 289.773 135.920,289.630 135.703,289.630 135.507 C 289.630 135.029,287.027 130.959,286.622 130.804 C 286.446 130.736,286.039 130.126,285.718 129.448 C 285.396 128.770,284.144 127.186,282.937 125.929 C 281.729 124.671,280.741 123.493,280.741 123.311 C 280.741 123.129,280.285 122.685,279.728 122.323 C 279.171 121.962,278.237 121.125,277.652 120.463 C 277.068 119.801,276.414 119.259,276.198 119.259 C 275.983 119.259,275.375 118.790,274.848 118.216 C 273.507 116.757,271.277 115.142,270.995 115.425 C 270.865 115.555,270.653 115.388,270.525 115.053 C 270.396 114.718,270.083 114.444,269.829 114.444 C 269.575 114.444,268.915 114.025,268.362 113.512 C 267.809 113.000,267.226 112.661,267.068 112.759 C 266.909 112.857,266.414 112.598,265.968 112.182 C 265.523 111.767,264.414 111.174,263.505 110.864 C 262.596 110.554,261.852 110.122,261.852 109.903 C 261.852 109.685,261.746 109.612,261.617 109.741 C 261.488 109.870,260.965 109.648,260.456 109.247 C 259.947 108.846,259.229 108.519,258.861 108.519 C 258.493 108.519,258.089 108.352,257.963 108.148 C 257.837 107.944,257.452 107.777,257.108 107.776 C 256.763 107.775,255.654 107.355,254.642 106.841 C 253.630 106.328,252.589 105.990,252.327 106.091 C 252.066 106.191,251.852 106.094,251.852 105.875 C 251.852 105.656,251.602 105.572,251.296 105.689 C 250.991 105.807,250.741 105.723,250.741 105.504 C 250.741 105.285,250.502 105.198,250.209 105.310 C 249.917 105.422,249.625 105.367,249.561 105.187 C 249.497 105.007,249.028 104.804,248.519 104.736 C 248.009 104.667,247.425 104.505,247.219 104.376 C 246.747 104.079,243.994 103.525,243.572 103.642 C 243.398 103.690,243.065 103.573,242.831 103.382 C 242.598 103.190,241.824 102.937,241.111 102.820 C 240.398 102.702,239.398 102.506,238.889 102.384 C 238.380 102.262,237.380 102.102,236.667 102.029 C 235.954 101.955,235.370 101.864,235.370 101.826 C 235.370 101.721,234.040 101.507,232.587 101.378 C 231.872 101.315,231.097 101.146,230.865 101.003 C 230.634 100.860,230.053 100.763,229.574 100.787 C 229.095 100.812,227.704 100.708,226.481 100.557 C 220.779 99.851,215.014 99.600,201.387 99.461 C 194.498 99.391,189.166 99.480,189.050 99.669 C 188.937 99.851,188.563 99.988,188.219 99.974 C 187.708 99.953,187.729 99.889,188.333 99.630 C 188.928 99.374,188.799 99.306,187.685 99.285 C 186.921 99.271,186.296 99.426,186.296 99.630 C 186.296 99.833,186.120 100.000,185.904 100.000 C 185.688 100.000,185.588 99.875,185.682 99.722 C 185.872 99.411,183.482 99.326,180.278 99.530 M207.407 103.176 C 215.832 103.705,216.792 103.800,217.778 104.204 C 218.083 104.329,219.333 104.516,220.556 104.619 C 223.139 104.837,224.632 105.049,225.926 105.384 C 226.435 105.515,227.269 105.669,227.778 105.725 C 228.287 105.781,228.954 105.919,229.259 106.031 C 229.970 106.293,231.847 106.698,232.685 106.770 C 233.042 106.800,233.333 106.946,233.333 107.094 C 233.333 107.241,234.125 107.477,235.093 107.617 C 236.060 107.757,237.019 107.995,237.222 108.145 C 237.426 108.296,239.009 108.869,240.741 109.417 C 242.472 109.966,244.324 110.650,244.855 110.938 C 245.387 111.226,245.929 111.355,246.059 111.225 C 246.190 111.094,246.296 111.147,246.296 111.341 C 246.296 111.535,246.648 111.721,247.078 111.753 C 247.509 111.786,248.147 112.071,248.497 112.388 C 248.848 112.705,249.246 112.853,249.382 112.717 C 249.518 112.581,249.630 112.652,249.630 112.876 C 249.630 113.275,251.026 113.922,251.574 113.777 C 251.727 113.737,251.852 113.870,251.852 114.074 C 251.852 114.278,252.081 114.444,252.362 114.444 C 252.643 114.444,253.078 114.693,253.330 114.996 C 253.582 115.299,253.935 115.456,254.116 115.344 C 254.297 115.233,254.444 115.327,254.444 115.553 C 254.444 115.779,254.944 116.139,255.556 116.352 C 256.167 116.565,256.667 116.889,256.667 117.073 C 256.667 117.257,256.917 117.407,257.222 117.407 C 257.528 117.407,257.778 117.602,257.778 117.840 C 257.778 118.077,257.886 118.163,258.019 118.030 C 258.152 117.898,258.471 118.078,258.730 118.432 C 258.988 118.785,259.338 119.074,259.507 119.074 C 259.676 119.074,260.173 119.407,260.611 119.815 C 261.049 120.222,261.965 121.039,262.648 121.630 C 265.602 124.189,269.259 127.774,269.259 128.111 C 269.259 128.312,269.630 128.736,270.082 129.053 C 270.535 129.370,270.743 129.635,270.545 129.641 C 270.347 129.647,270.477 129.822,270.833 130.030 C 271.190 130.237,271.481 130.649,271.481 130.944 C 271.481 131.240,271.652 131.481,271.861 131.481 C 272.070 131.481,272.399 131.898,272.593 132.407 C 272.786 132.917,273.074 133.335,273.232 133.338 C 273.389 133.340,273.846 134.026,274.247 134.861 C 274.647 135.697,275.188 136.463,275.448 136.563 C 275.709 136.663,275.837 136.882,275.733 137.050 C 275.629 137.219,275.702 137.454,275.896 137.574 C 276.090 137.694,276.703 138.747,277.259 139.914 C 278.502 142.526,278.380 142.246,278.704 143.241 C 278.853 143.699,279.123 144.074,279.302 144.074 C 279.482 144.074,279.610 144.199,279.586 144.352 C 279.562 144.505,279.574 144.713,279.613 144.815 C 279.653 144.917,279.756 145.388,279.844 145.861 C 279.932 146.335,280.205 147.085,280.452 147.528 C 280.698 147.971,280.926 148.458,280.959 148.611 C 280.992 148.764,281.052 148.931,281.093 148.981 C 281.175 149.084,281.265 149.416,281.853 151.820 C 282.073 152.718,282.366 153.635,282.505 153.857 C 282.801 154.330,282.996 155.084,283.087 156.111 C 283.123 156.519,283.287 157.060,283.450 157.315 C 283.614 157.569,283.672 157.903,283.579 158.056 C 283.486 158.208,283.578 159.250,283.782 160.370 C 284.931 166.654,284.803 179.059,283.521 185.741 C 283.208 187.370,282.902 189.128,282.841 189.646 C 282.780 190.165,282.639 190.748,282.527 190.943 C 282.252 191.423,281.832 193.221,281.634 194.771 C 281.544 195.474,281.292 196.264,281.074 196.527 C 280.855 196.790,280.784 197.179,280.916 197.391 C 281.047 197.604,280.978 197.778,280.763 197.778 C 280.547 197.778,280.370 198.117,280.370 198.531 C 280.370 198.945,279.951 200.112,279.438 201.123 C 278.926 202.135,278.613 202.963,278.743 202.963 C 278.873 202.963,278.772 203.213,278.519 203.519 C 278.265 203.824,278.203 204.077,278.381 204.080 C 278.558 204.083,278.518 204.208,278.290 204.358 C 277.693 204.751,276.286 207.644,276.559 207.917 C 276.686 208.044,276.586 208.148,276.336 208.148 C 276.086 208.148,275.985 208.315,276.111 208.519 C 276.237 208.722,276.176 208.889,275.977 208.889 C 275.777 208.889,275.417 209.484,275.177 210.211 C 274.937 210.938,274.507 211.623,274.222 211.732 C 273.937 211.842,273.704 212.163,273.704 212.447 C 273.704 212.731,273.537 212.963,273.333 212.963 C 273.130 212.963,272.963 213.213,272.963 213.519 C 272.963 213.824,272.786 214.074,272.571 214.074 C 272.355 214.074,272.275 214.230,272.393 214.422 C 272.511 214.613,272.313 214.941,271.952 215.151 C 271.591 215.361,271.444 215.538,271.624 215.544 C 271.804 215.550,271.504 215.908,270.956 216.339 C 270.409 216.769,270.043 217.203,270.143 217.303 C 270.497 217.657,261.081 227.037,260.371 227.037 C 260.171 227.037,259.798 227.370,259.544 227.778 C 259.289 228.185,258.866 228.519,258.603 228.519 C 258.340 228.519,258.029 228.768,257.913 229.072 C 257.796 229.376,257.572 229.546,257.415 229.449 C 257.258 229.352,256.684 229.687,256.139 230.192 C 255.593 230.698,255.020 231.111,254.866 231.111 C 254.711 231.111,254.219 231.451,253.774 231.866 C 253.328 232.282,252.963 232.528,252.963 232.413 C 252.963 232.194,251.314 233.193,250.371 233.985 C 250.065 234.241,249.731 234.416,249.630 234.374 C 249.358 234.262,245.418 236.417,245.098 236.852 C 244.949 237.056,244.824 237.091,244.820 236.931 C 244.817 236.771,244.440 236.849,243.981 237.103 C 243.523 237.357,243.023 237.529,242.870 237.486 C 242.718 237.443,242.593 237.584,242.593 237.800 C 242.593 238.015,242.426 238.089,242.222 237.963 C 242.019 237.837,241.852 237.892,241.852 238.086 C 241.852 238.387,241.163 238.675,239.444 239.095 C 239.241 239.145,238.574 239.397,237.963 239.654 C 237.352 239.912,236.727 240.158,236.574 240.200 C 236.421 240.243,236.213 240.319,236.111 240.370 C 236.009 240.421,235.759 240.505,235.556 240.556 C 235.352 240.606,235.144 240.682,235.093 240.723 C 235.042 240.764,234.716 240.852,234.368 240.919 C 233.488 241.089,229.894 242.274,229.444 242.542 C 229.241 242.664,228.621 242.789,228.067 242.820 C 227.513 242.850,226.763 243.001,226.400 243.156 C 226.037 243.310,225.491 243.468,225.185 243.506 C 223.790 243.682,221.638 244.163,221.299 244.375 C 220.909 244.618,220.718 244.650,217.412 245.015 C 216.294 245.139,215.203 245.387,214.988 245.566 C 214.772 245.745,214.020 245.879,213.316 245.864 C 212.613 245.849,210.954 245.950,209.630 246.089 C 204.506 246.625,203.368 246.685,198.704 246.672 C 194.166 246.658,191.666 246.526,188.426 246.128 C 187.482 246.012,187.037 246.103,187.037 246.412 C 187.037 246.870,185.509 246.887,180.741 246.481 C 179.620 246.386,178.120 246.264,177.407 246.209 L 176.111 246.111 176.017 285.271 L 175.923 324.431 156.943 324.530 L 137.963 324.630 138.057 215.833 C 138.160 95.706,137.937 106.836,140.242 107.018 C 140.681 107.052,141.151 106.902,141.287 106.682 C 141.422 106.463,141.686 106.379,141.874 106.495 C 142.061 106.611,143.175 106.511,144.348 106.274 C 145.521 106.036,147.148 105.778,147.963 105.700 C 148.778 105.621,150.111 105.478,150.926 105.382 C 151.741 105.286,153.407 105.124,154.630 105.023 C 155.852 104.921,157.685 104.746,158.704 104.634 C 159.722 104.521,161.472 104.365,162.593 104.287 C 163.713 104.209,165.880 104.045,167.407 103.923 C 171.806 103.570,176.073 103.364,181.749 103.230 C 184.647 103.162,187.093 103.030,187.185 102.938 C 187.386 102.738,203.439 102.927,207.407 103.176 M134.536 215.185 L 134.442 324.444 130.554 324.444 L 126.667 324.444 126.667 215.719 C 126.667 143.329,126.790 107.070,127.037 107.222 C 127.241 107.348,127.607 107.328,127.852 107.177 C 128.096 107.026,128.638 106.869,129.055 106.828 C 130.496 106.687,133.149 106.214,133.302 106.070 C 134.682 104.780,134.634 100.584,134.536 215.185 M253.426 109.725 C 253.782 109.759,254.074 109.885,254.074 110.004 C 254.074 110.244,256.460 111.187,257.528 111.370 C 257.901 111.433,258.454 111.735,258.759 112.039 C 259.276 112.556,259.802 112.741,260.463 112.636 C 260.616 112.612,260.741 112.753,260.741 112.948 C 260.741 113.144,261.407 113.503,262.222 113.747 C 263.037 113.992,263.704 114.332,263.704 114.503 C 263.704 114.675,263.954 114.815,264.259 114.815 C 264.565 114.815,264.815 114.991,264.815 115.207 C 264.815 115.423,264.981 115.496,265.185 115.370 C 265.389 115.244,265.556 115.318,265.556 115.534 C 265.556 115.749,265.806 115.926,266.111 115.926 C 266.417 115.926,266.667 116.102,266.667 116.318 C 266.667 116.534,266.833 116.607,267.037 116.481 C 267.241 116.356,267.407 116.427,267.407 116.640 C 267.407 116.853,267.966 117.260,268.648 117.545 C 269.330 117.830,270.376 118.541,270.973 119.124 C 271.570 119.708,272.181 120.224,272.332 120.271 C 273.094 120.511,282.523 130.000,281.999 130.000 C 281.805 130.000,282.340 130.678,283.589 132.016 C 284.035 132.493,284.302 132.981,284.184 133.100 C 284.065 133.219,284.241 133.421,284.574 133.549 C 284.908 133.677,285.102 133.910,285.005 134.066 C 284.908 134.223,285.234 134.789,285.730 135.324 C 286.226 135.859,286.546 136.296,286.443 136.296 C 286.339 136.296,286.550 136.796,286.911 137.407 C 287.272 138.019,287.686 138.519,287.831 138.519 C 287.976 138.519,288.624 139.894,289.271 141.574 C 289.919 143.255,290.639 144.752,290.872 144.902 C 291.106 145.051,291.161 145.176,290.997 145.180 C 290.832 145.183,290.827 145.394,290.986 145.648 C 291.145 145.903,291.315 146.367,291.364 146.679 C 291.412 146.992,291.735 147.908,292.081 148.716 C 292.427 149.524,292.759 150.599,292.820 151.106 C 292.881 151.612,293.096 152.081,293.297 152.148 C 293.498 152.215,293.581 152.481,293.483 152.738 C 293.384 152.995,293.506 153.693,293.753 154.288 C 294.001 154.883,294.241 155.704,294.286 156.111 C 294.332 156.519,294.473 157.269,294.599 157.778 C 294.725 158.287,294.912 159.370,295.015 160.185 C 295.117 161.000,295.277 162.250,295.368 162.963 C 295.549 164.365,295.961 169.976,295.995 171.481 C 296.027 172.932,295.597 179.658,295.369 181.264 C 295.256 182.061,295.096 183.394,295.013 184.227 C 294.931 185.060,294.597 186.873,294.272 188.257 C 293.946 189.641,293.779 190.933,293.899 191.127 C 294.019 191.322,293.922 191.481,293.682 191.481 C 293.429 191.481,293.328 191.792,293.441 192.222 C 293.547 192.630,293.464 192.963,293.255 192.963 C 293.047 192.963,292.964 193.296,293.070 193.704 C 293.177 194.111,293.131 194.444,292.970 194.444 C 292.653 194.444,292.047 196.920,292.177 197.685 C 292.220 197.940,292.083 198.148,291.872 198.148 C 291.662 198.148,291.384 198.815,291.253 199.630 C 291.123 200.444,290.843 201.111,290.632 201.111 C 290.420 201.111,290.357 201.221,290.491 201.355 C 290.625 201.489,290.549 201.822,290.322 202.096 C 290.095 202.369,290.039 202.593,290.197 202.593 C 290.356 202.593,290.221 202.884,289.899 203.241 C 289.576 203.597,289.278 204.056,289.236 204.259 C 289.193 204.463,289.028 204.963,288.869 205.370 C 288.709 205.778,288.483 206.361,288.366 206.667 C 288.075 207.426,287.288 208.656,286.920 208.926 C 286.753 209.048,286.582 209.382,286.539 209.667 C 286.496 209.952,286.299 210.435,286.101 210.741 C 285.903 211.046,285.574 211.564,285.370 211.891 C 283.937 214.193,282.055 216.667,281.738 216.667 C 281.529 216.667,281.463 216.772,281.592 216.901 C 281.721 217.030,281.416 217.459,280.913 217.854 C 280.411 218.249,280.000 218.730,280.000 218.922 C 280.000 219.285,274.472 224.811,274.100 224.820 C 273.984 224.823,272.919 225.740,271.734 226.857 C 270.548 227.975,269.515 228.889,269.437 228.889 C 269.141 228.889,265.710 231.272,265.078 231.917 C 264.714 232.288,264.172 232.593,263.874 232.593 C 263.577 232.593,263.333 232.787,263.333 233.025 C 263.333 233.262,263.221 233.344,263.083 233.206 C 262.945 233.069,262.445 233.320,261.972 233.765 C 261.498 234.210,261.111 234.452,261.111 234.303 C 261.111 233.980,258.823 235.209,258.432 235.741 C 258.282 235.944,258.157 235.966,258.154 235.788 C 258.151 235.610,257.881 235.686,257.555 235.957 C 257.229 236.228,256.704 236.487,256.389 236.533 C 256.073 236.580,255.676 236.837,255.506 237.105 C 255.336 237.373,255.194 237.462,255.191 237.302 C 255.188 237.142,254.810 237.217,254.352 237.469 C 253.894 237.721,253.352 237.960,253.148 238.001 C 252.240 238.181,250.791 238.878,250.566 239.242 C 250.430 239.462,250.167 239.548,249.982 239.433 C 249.797 239.319,249.266 239.435,248.804 239.692 C 248.341 239.949,247.838 240.186,247.685 240.218 C 247.532 240.251,247.282 240.318,247.130 240.368 C 246.977 240.418,246.727 240.438,246.574 240.414 C 246.421 240.390,246.296 240.532,246.296 240.729 C 246.296 240.926,246.046 240.992,245.741 240.875 C 245.435 240.757,245.185 240.864,245.185 241.111 C 245.185 241.359,244.935 241.465,244.630 241.348 C 244.324 241.230,244.074 241.254,244.074 241.401 C 244.074 241.547,243.621 241.693,243.069 241.725 C 242.425 241.762,243.322 241.188,245.569 240.124 C 247.497 239.211,249.130 238.308,249.198 238.118 C 249.267 237.929,249.475 237.867,249.661 237.983 C 249.848 238.098,250.000 238.015,250.000 237.800 C 250.000 237.584,250.125 237.434,250.278 237.467 C 250.821 237.584,252.593 236.678,252.593 236.284 C 252.593 236.063,252.740 235.973,252.919 236.084 C 253.099 236.195,253.667 235.955,254.182 235.551 C 254.696 235.146,255.299 234.815,255.521 234.815 C 255.744 234.815,255.926 234.648,255.926 234.444 C 255.926 234.241,256.146 234.074,256.415 234.074 C 256.684 234.074,257.266 233.657,257.709 233.148 C 258.151 232.639,258.706 232.222,258.941 232.222 C 259.402 232.222,262.266 230.009,263.593 228.627 C 264.042 228.160,264.498 227.778,264.606 227.778 C 264.714 227.778,266.431 226.194,268.420 224.259 C 270.409 222.324,271.903 220.741,271.740 220.741 C 271.577 220.741,271.910 220.308,272.481 219.779 C 273.052 219.250,273.519 218.683,273.519 218.518 C 273.519 218.353,273.978 217.703,274.540 217.072 C 275.102 216.442,275.435 215.921,275.281 215.914 C 275.126 215.908,275.264 215.699,275.587 215.451 C 276.396 214.830,278.148 211.992,278.148 211.304 C 278.148 210.994,278.288 210.741,278.459 210.741 C 278.800 210.741,279.798 208.871,279.694 208.426 C 279.659 208.273,279.796 208.148,280.000 208.148 C 280.204 208.148,280.331 208.023,280.282 207.870 C 280.185 207.565,281.132 205.110,281.460 204.815 C 281.823 204.490,282.963 201.845,282.963 201.331 C 282.963 201.058,283.305 200.062,283.723 199.117 C 284.141 198.172,284.388 197.246,284.272 197.058 C 284.157 196.871,284.234 196.611,284.444 196.481 C 284.655 196.351,284.731 196.090,284.614 195.900 C 284.497 195.711,284.595 195.556,284.833 195.556 C 285.070 195.556,285.171 195.311,285.056 195.012 C 284.941 194.713,284.983 194.384,285.148 194.282 C 285.411 194.120,285.945 191.925,286.460 188.889 C 286.547 188.380,286.775 187.130,286.968 186.111 C 287.160 185.093,287.331 184.009,287.346 183.704 C 287.362 183.398,287.501 181.815,287.656 180.185 C 287.961 176.985,287.940 166.898,287.623 163.889 C 287.516 162.870,287.359 161.370,287.275 160.556 C 287.191 159.741,287.018 158.657,286.891 158.148 C 286.763 157.639,286.576 156.722,286.474 156.111 C 286.068 153.671,285.439 151.272,285.091 150.833 C 284.889 150.579,284.827 150.370,284.952 150.370 C 285.210 150.370,284.271 147.704,283.508 146.273 C 283.230 145.750,282.924 144.917,282.829 144.421 C 282.660 143.546,281.810 141.503,281.143 140.370 C 280.963 140.065,280.524 139.106,280.167 138.241 C 279.809 137.375,279.376 136.667,279.203 136.667 C 279.030 136.667,278.889 136.417,278.889 136.111 C 278.889 135.806,278.712 135.556,278.497 135.556 C 278.281 135.556,278.207 135.389,278.333 135.185 C 278.459 134.981,278.376 134.815,278.148 134.815 C 277.920 134.815,277.838 134.647,277.965 134.442 C 278.091 134.237,277.935 133.969,277.618 133.847 C 277.301 133.726,277.127 133.487,277.232 133.317 C 277.337 133.147,277.155 132.858,276.826 132.675 C 276.498 132.491,276.287 132.256,276.356 132.152 C 276.543 131.871,273.406 127.500,272.625 126.953 C 272.254 126.694,271.971 126.370,271.994 126.233 C 272.018 126.096,270.495 124.455,268.611 122.585 C 266.727 120.715,265.185 119.307,265.185 119.457 C 265.185 119.607,264.688 119.166,264.080 118.476 C 263.472 117.786,262.972 117.366,262.969 117.541 C 262.966 117.716,262.635 117.466,262.235 116.985 C 261.834 116.505,261.501 116.220,261.494 116.352 C 261.487 116.485,260.959 116.105,260.320 115.508 C 259.680 114.911,259.079 114.501,258.984 114.596 C 258.888 114.692,258.463 114.447,258.039 114.052 C 257.615 113.657,257.049 113.333,256.782 113.333 C 256.515 113.333,256.296 113.167,256.296 112.963 C 256.296 112.759,256.039 112.593,255.725 112.593 C 255.411 112.593,254.796 112.259,254.359 111.852 C 253.922 111.444,253.262 111.111,252.893 111.111 C 252.524 111.111,252.222 110.935,252.222 110.719 C 252.222 110.503,252.056 110.430,251.852 110.556 C 251.648 110.681,251.481 110.608,251.481 110.392 C 251.481 110.177,251.169 110.000,250.786 110.000 C 250.404 110.000,249.880 109.746,249.622 109.435 C 249.365 109.125,249.073 108.952,248.974 109.050 C 248.761 109.263,246.800 108.293,246.516 107.834 C 246.408 107.659,247.772 107.998,249.548 108.588 C 251.325 109.179,253.069 109.690,253.426 109.725 M191.778 140.188 C 191.636 140.335,190.136 140.511,188.445 140.579 C 182.974 140.799,179.942 141.071,177.913 141.525 L 175.926 141.970 175.926 174.862 C 175.926 203.466,175.996 207.728,176.464 207.548 C 176.760 207.435,177.218 207.480,177.482 207.648 C 178.442 208.260,208.933 208.578,212.963 208.017 C 213.880 207.890,214.996 207.781,215.445 207.776 C 215.893 207.771,216.351 207.618,216.463 207.437 C 216.576 207.255,217.001 207.194,217.408 207.300 C 217.822 207.408,218.148 207.311,218.148 207.080 C 218.148 206.853,218.637 206.667,219.235 206.667 C 219.833 206.667,220.791 206.475,221.365 206.240 C 221.938 206.005,222.704 205.755,223.066 205.685 C 223.428 205.615,224.344 205.282,225.103 204.946 C 225.861 204.611,226.715 204.288,227.000 204.230 C 227.285 204.171,227.658 203.904,227.828 203.636 C 227.998 203.368,228.139 203.284,228.142 203.450 C 228.150 203.856,231.111 202.173,231.111 201.762 C 231.111 201.584,231.279 201.541,231.484 201.668 C 231.689 201.795,231.957 201.638,232.079 201.320 C 232.201 201.001,232.539 200.741,232.829 200.741 C 233.119 200.741,233.453 200.491,233.570 200.185 C 233.687 199.880,234.011 199.630,234.290 199.630 C 234.569 199.630,235.074 199.208,235.412 198.692 C 235.750 198.177,236.101 197.830,236.193 197.921 C 236.607 198.336,241.183 193.070,241.340 191.996 C 241.376 191.755,241.736 191.227,242.141 190.822 C 242.880 190.083,244.444 186.371,244.444 185.356 C 244.444 185.059,244.576 184.815,244.736 184.815 C 244.896 184.815,245.068 184.284,245.117 183.636 C 245.167 182.987,245.354 182.279,245.533 182.062 C 246.297 181.136,246.720 171.359,246.167 167.407 C 246.067 166.694,245.886 165.369,245.764 164.462 C 245.642 163.555,245.421 162.722,245.271 162.610 C 245.122 162.499,244.954 161.998,244.898 161.498 C 244.842 160.997,244.676 160.497,244.528 160.387 C 244.380 160.276,244.202 159.859,244.133 159.460 C 244.063 159.061,243.688 158.330,243.299 157.836 C 242.911 157.341,242.593 156.635,242.593 156.265 C 242.593 155.895,242.301 155.422,241.944 155.215 C 241.588 155.007,241.463 154.830,241.667 154.820 C 241.870 154.811,241.787 154.645,241.481 154.452 C 241.176 154.259,240.926 153.934,240.926 153.729 C 240.926 153.146,237.020 148.856,236.681 149.065 C 236.514 149.169,236.105 148.838,235.773 148.330 C 235.440 147.823,234.922 147.407,234.621 147.407 C 234.320 147.407,234.074 147.272,234.074 147.106 C 234.074 146.940,232.741 146.106,231.111 145.253 C 229.481 144.400,228.148 143.789,228.148 143.896 C 228.148 144.004,227.768 143.842,227.302 143.537 C 226.837 143.232,226.129 142.920,225.728 142.843 C 225.328 142.767,224.750 142.600,224.444 142.474 C 223.832 142.220,222.268 141.885,220.556 141.641 C 219.944 141.554,218.111 141.258,216.481 140.984 C 211.981 140.225,206.383 139.980,201.481 140.327 C 200.769 140.378,198.352 140.307,196.111 140.170 C 193.870 140.033,191.921 140.041,191.778 140.188 M203.546 144.027 C 206.150 144.021,206.734 144.072,207.167 144.343 C 207.616 144.623,207.968 144.705,209.898 144.979 C 210.555 145.073,211.430 145.330,211.842 145.550 C 212.255 145.771,212.593 145.853,212.593 145.732 C 212.593 145.611,212.801 145.644,213.056 145.806 C 213.310 145.967,213.602 146.116,213.704 146.136 C 213.806 146.157,214.389 146.384,215.000 146.642 C 215.611 146.900,216.278 147.152,216.481 147.202 C 217.512 147.457,218.787 148.135,219.224 148.661 C 219.493 148.986,219.861 149.160,220.042 149.048 C 220.223 148.937,220.370 149.049,220.370 149.299 C 220.370 149.549,220.480 149.643,220.615 149.509 C 220.749 149.374,221.094 149.599,221.381 150.009 C 221.668 150.418,222.016 150.688,222.155 150.608 C 222.294 150.528,223.519 151.608,224.877 153.009 C 226.236 154.410,227.236 155.561,227.100 155.567 C 226.963 155.574,227.108 155.782,227.421 156.030 C 228.049 156.529,230.864 162.656,230.864 163.526 C 230.864 163.827,231.013 164.074,231.195 164.074 C 231.376 164.074,231.433 164.223,231.320 164.406 C 231.208 164.588,231.301 165.629,231.527 166.720 C 232.036 169.179,232.184 177.427,231.729 178.053 C 231.545 178.307,231.474 178.932,231.572 179.442 C 231.669 179.953,231.588 180.370,231.390 180.370 C 231.193 180.370,231.126 180.615,231.240 180.914 C 231.355 181.213,231.309 181.545,231.137 181.651 C 230.965 181.757,230.694 182.471,230.534 183.237 C 230.374 184.003,230.224 184.713,230.201 184.815 C 230.178 184.917,229.962 185.353,229.722 185.785 C 229.482 186.216,229.391 186.675,229.519 186.803 C 229.648 186.932,229.575 187.037,229.358 187.037 C 229.140 187.037,228.654 187.786,228.277 188.702 C 227.901 189.618,227.468 190.368,227.315 190.369 C 227.162 190.370,227.037 190.620,227.037 190.926 C 227.037 191.231,226.861 191.481,226.645 191.481 C 226.429 191.481,226.336 191.616,226.437 191.780 C 226.539 191.944,226.054 192.552,225.360 193.131 C 224.666 193.710,224.202 194.367,224.330 194.592 C 224.458 194.816,224.424 194.874,224.255 194.720 C 224.085 194.566,223.372 195.066,222.671 195.831 C 221.971 196.596,221.284 197.222,221.147 197.222 C 221.009 197.222,220.194 197.778,219.337 198.457 C 218.479 199.136,217.778 199.599,217.778 199.485 C 217.778 199.371,216.944 199.770,215.926 200.370 C 214.907 200.971,214.074 201.374,214.074 201.266 C 214.074 201.158,213.616 201.317,213.056 201.620 C 211.817 202.289,209.831 202.959,208.333 203.212 C 207.722 203.316,207.173 203.534,207.112 203.698 C 207.051 203.861,206.676 203.910,206.279 203.806 C 205.881 203.702,205.556 203.779,205.556 203.978 C 205.556 204.176,205.097 204.338,204.537 204.337 C 202.611 204.335,199.492 204.839,199.023 205.227 C 198.765 205.442,198.253 205.521,197.885 205.404 C 197.517 205.288,195.884 205.092,194.256 204.969 C 192.628 204.847,191.130 204.734,190.926 204.719 C 190.682 204.701,190.556 194.397,190.556 174.603 C 190.556 158.055,190.689 144.597,190.851 144.698 C 191.014 144.798,191.430 144.758,191.777 144.609 C 192.455 144.317,193.490 144.203,197.699 143.957 C 199.184 143.870,200.498 143.700,200.618 143.579 C 200.739 143.458,201.120 143.510,201.465 143.695 C 201.810 143.879,202.746 144.029,203.546 144.027 M187.125 174.746 L 187.029 205.603 186.218 205.346 C 185.772 205.204,184.209 205.048,182.744 204.998 C 181.279 204.948,179.895 204.794,179.670 204.654 C 178.830 204.135,179.117 144.477,179.958 144.697 C 180.343 144.797,180.760 144.713,180.886 144.509 C 181.012 144.306,181.572 144.208,182.131 144.292 C 182.691 144.376,183.603 144.320,184.160 144.167 C 184.716 144.014,185.633 143.889,186.197 143.889 L 187.222 143.889 187.125 174.746 M221.921 145.346 C 222.596 145.434,223.148 145.536,223.148 145.573 C 223.148 145.610,223.633 145.696,224.227 145.765 C 224.820 145.834,225.442 146.107,225.610 146.371 C 225.777 146.636,225.917 146.706,225.920 146.529 C 225.923 146.351,226.176 146.413,226.481 146.667 C 226.787 146.920,227.037 147.012,227.037 146.870 C 227.037 146.729,227.476 146.958,228.013 147.381 C 228.550 147.803,229.268 148.148,229.610 148.148 C 229.951 148.148,230.578 148.471,231.002 148.867 C 231.426 149.262,231.874 149.484,231.998 149.360 C 232.121 149.237,232.222 149.330,232.222 149.568 C 232.222 149.806,232.372 150.000,232.556 150.000 C 232.739 150.000,233.460 150.542,234.158 151.204 C 234.855 151.866,235.823 152.699,236.307 153.056 C 236.791 153.412,237.053 153.704,236.889 153.704 C 236.724 153.704,237.113 154.329,237.752 155.093 C 239.483 157.161,241.114 160.038,241.112 161.019 C 241.112 161.273,241.257 161.481,241.435 161.481 C 241.613 161.481,241.759 161.917,241.759 162.450 C 241.759 162.982,241.915 163.524,242.106 163.653 C 242.297 163.783,242.471 164.222,242.494 164.630 C 242.517 165.037,242.628 165.870,242.741 166.481 C 243.525 170.721,243.525 175.074,242.741 179.444 C 242.631 180.056,242.536 180.931,242.528 181.389 C 242.520 181.847,242.358 182.222,242.167 182.222 C 241.976 182.222,241.857 182.431,241.904 182.685 C 241.950 182.940,241.709 183.791,241.367 184.576 C 241.025 185.362,240.838 186.154,240.950 186.336 C 241.063 186.518,240.978 186.667,240.763 186.667 C 240.547 186.667,240.370 186.841,240.370 187.055 C 240.370 187.658,237.830 191.530,236.555 192.870 C 235.925 193.532,235.538 194.074,235.695 194.074 C 235.851 194.074,235.729 194.324,235.423 194.630 C 235.118 194.935,234.750 195.185,234.606 195.185 C 234.462 195.185,233.958 195.602,233.486 196.111 C 233.014 196.620,232.459 197.037,232.253 197.037 C 232.047 197.037,231.697 197.375,231.476 197.788 C 231.255 198.201,230.914 198.441,230.720 198.320 C 230.525 198.200,230.265 198.362,230.143 198.680 C 230.021 198.999,229.660 199.259,229.341 199.259 C 229.023 199.259,228.499 199.491,228.177 199.775 C 226.688 201.087,217.407 204.265,217.407 203.462 C 217.407 203.163,217.549 203.007,217.722 203.113 C 217.895 203.220,218.353 203.012,218.740 202.652 C 219.437 202.003,219.728 201.852,220.288 201.852 C 220.446 201.852,221.084 201.394,221.706 200.833 C 222.327 200.273,223.552 199.231,224.428 198.519 C 226.751 196.628,228.519 194.764,228.519 194.206 C 228.519 194.079,228.877 193.665,229.316 193.284 C 229.755 192.904,230.006 192.593,229.875 192.593 C 229.744 192.593,229.927 192.254,230.281 191.840 C 230.636 191.426,230.870 190.986,230.802 190.863 C 230.733 190.739,230.833 190.536,231.023 190.412 C 231.673 189.986,233.646 185.373,233.892 183.704 C 234.027 182.787,234.273 181.870,234.439 181.667 C 235.322 180.585,235.673 166.481,234.817 166.481 C 234.768 166.481,234.684 165.855,234.630 165.090 C 234.576 164.325,234.362 163.242,234.153 162.683 C 233.944 162.124,233.648 161.333,233.494 160.926 C 233.341 160.519,233.242 160.060,233.275 159.907 C 233.307 159.755,233.139 159.630,232.901 159.630 C 232.664 159.630,232.577 159.522,232.708 159.391 C 233.168 158.931,230.248 154.031,228.374 152.117 C 227.333 151.055,226.815 150.435,227.222 150.741 C 227.909 151.256,227.926 151.249,227.455 150.648 C 227.175 150.292,226.791 150.000,226.600 150.000 C 226.410 150.000,225.764 149.463,225.164 148.806 C 224.565 148.150,224.074 147.765,224.074 147.951 C 224.074 148.137,223.829 147.966,223.530 147.571 C 223.231 147.175,222.979 147.019,222.969 147.222 C 222.959 147.426,222.794 147.343,222.600 147.037 C 222.407 146.731,222.114 146.481,221.949 146.481 C 221.784 146.481,221.403 146.267,221.102 146.006 C 220.801 145.744,220.222 145.277,219.815 144.967 C 219.092 144.417,219.094 144.413,219.884 144.795 C 220.330 145.010,221.246 145.258,221.921 145.346 M203.611 205.450 C 203.051 205.535,202.134 205.535,201.574 205.450 C 201.014 205.366,201.472 205.296,202.593 205.296 C 203.713 205.296,204.171 205.366,203.611 205.450 M185.830 250.219 L 187.030 250.453 187.126 287.542 L 187.222 324.630 183.241 324.514 L 179.259 324.398 179.259 287.067 L 179.259 249.735 181.944 249.860 C 183.421 249.928,185.170 250.090,185.830 250.219 " stroke="none" fill="#fcfcf4" fill-rule="evenodd"></path><path id="path1" d="M185.000 99.628 C 185.965 100.045,186.296 100.066,186.296 99.710 C 186.296 99.551,185.838 99.395,185.278 99.364 C 184.399 99.316,184.361 99.352,185.000 99.628 M123.419 138.148 C 123.419 138.861,123.495 139.153,123.589 138.796 C 123.682 138.440,123.682 137.856,123.589 137.500 C 123.495 137.144,123.419 137.435,123.419 138.148 M287.804 138.704 C 287.804 138.907,288.042 139.491,288.333 140.000 C 288.624 140.509,288.863 140.759,288.863 140.556 C 288.863 140.352,288.624 139.769,288.333 139.259 C 288.042 138.750,287.804 138.500,287.804 138.704 M201.574 205.450 C 202.134 205.535,203.051 205.535,203.611 205.450 C 204.171 205.366,203.713 205.296,202.593 205.296 C 201.472 205.296,201.014 205.366,201.574 205.450 M240.163 238.724 C 239.456 239.291,239.456 239.295,240.185 238.959 C 240.593 238.772,241.176 238.526,241.481 238.413 C 241.961 238.235,241.958 238.203,241.460 238.177 C 241.142 238.161,240.559 238.407,240.163 238.724 " stroke="none" fill="#fcf4f4" fill-rule="evenodd"></path><path id="path2" d="" stroke="none" fill="#100fcf4" fill-rule="evenodd"></path><path id="path3" d="" stroke="none" fill="#100fcf4" fill-rule="evenodd"></path><path id="path4" d="" stroke="none" fill="#100fcf4" fill-rule="evenodd"></path><path id="path5" d="" stroke="none" fill="#100fcf4" fill-rule="evenodd"></path><path id="path6" d="" stroke="none" fill="#100fcf4" fill-rule="evenodd"></path><path id="path7" d="" stroke="none" fill="#100fcf4" fill-rule="evenodd"></path><path id="path8" d="" stroke="none" fill="#100fcf4" fill-rule="evenodd"></path></g></svg>