<svg id="Camada_1" data-name="Camada 1" xmlns="http://www.w3.org/2000/svg"  width='560' height='900' viewBox="0 0 560 900">
    <defs>
        <style>
            .cls-1,.cls-3{fill:none;stroke-miterlimit:10;stroke-width:3px;}.cls-1{stroke:gold;}.cls-2{fill:gold;}.cls-3{stroke:#fcee21;}.cls-4{clip-path:url(#clip-path);}
        </style>
<clipPath id="clip-path">
    <path class="cls-1" d="M5.26,3.47H226.35q106,0,172,20t111.21,88.38q45.1,68.4,45.13,164.64,0,88.38-36.59,151.89T419.86,520q-61.73,28.17-189.75,28.16H153.7V896.53H5.26ZM153.7,118.39V429.65h72.92q97.64,0,135.07-36.61t37.42-119q0-61.44-24.74-99.72T320,127.22q-29.62-8.81-93.39-8.83Z"/>
</clipPath>
</defs>
    <g class="cls-4 svg-container" transform='translate(0,457) scale(.1, -.1)' fill='none'><path class="cls-2" d="M298.24,965c-.05-1.61-.14-3.22-.14-4.83q0-169.67.13-339.33c0-3.52-.85-6.11-3.54-8.41-7.28-6.22-13.84-13.21-20.73-19.84-6.29-6-12.6-12.05-18.73-18.25-2.59-2.63-5.31-5.14-8-7.62a5.71,5.71,0,0,1-2-4.78c.11-3.31.06-6.63,0-10,0-2.5-.3-2.73-2.8-2.81-1.32,0-2.65,0-4,0-2.66-.1-3.39-.77-3.42-3.42-.06-5-.17-10.06,0-15.08a8.1,8.1,0,0,0-2.83-6.7c-13-12.57-25.79-25.41-38.77-38-10.32-10.05-20.39-20.36-30.83-30.29-8-7.58-15.56-15.53-23.57-23.06a7.17,7.17,0,0,1-2.4-5.76c.08-11.57-.19-23.14.08-34.7.76-32.23.14-64.46.38-96.69,0-4.5,0-4.5-4.55-4.5-1.13,0-2.28,0-3.41,0-1.94-.13-2.51-.68-2.71-2.58-.09-.94-.06-1.9-.06-2.85,0-4.55,0-9.1,0-13.65,0-3,.74-3.64,3.73-3.73,1.61,0,3.22,0,4.84,0,1.38,0,2.12-.63,2.13-2.05,0-.95,0-1.9,0-2.85,0-24.55.06-49.11,0-73.67a9,9,0,0,1,2.85-7C152,170.7,163.73,158.76,175.66,147a8,8,0,0,0,2.59-6.25c-.07-20.38,0-40.77,0-61.15,0-1,.08-2.08.18-3.11a.82.82,0,0,1,.53-.57c.43-.1.71.23.75.63a18.92,18.92,0,0,1,.15,2.26c0,21.24,0,42.47.08,63.71a6.84,6.84,0,0,1-2.21,5.26c-12,12-24,24-36,36a8.31,8.31,0,0,0-2.75,6.46c.11,24.56.08,49.12.1,73.67,0,4.24,0,4.24,4.24,4.26.95,0,1.9,0,2.84,0,2.27.15,3.07.85,3.11,3.18q.12,8.38,0,16.78c0,2.22-.68,2.73-3,2.83-1.32.05-2.65,0-4,0-3,.05-3.13.23-3.18,3.31,0,.38,0,.76,0,1.14,0,30.15-.21,60.3.14,90.44.16,13.65.15,27.3.26,40.95a6,6,0,0,0,1.92,4.51c9.11,9,18,18.2,27.27,27,10.3,9.81,20.17,20.05,30.44,29.87,10.82,10.36,21.37,21,32,31.51,1.75,1.73,3.65,3.3,5.42,5a4.55,4.55,0,0,0,3.4,1.13c4.08,0,8.15,0,12.23,0,.76,0,1.52,0,2.27,0,2.68.12,3.37.78,3.46,3.41.06,1.7,0,3.41,0,5.12,0,3.69,0,7.39,0,11.09,0,3-.74,3.62-3.75,3.7-1.42,0-2.85,0-4.27,0-1.79.11-2.13.42-2.17,2.26-.06,3.51,0,7,0,10.52a3.92,3.92,0,0,0,1.35,3c7.7,7.45,15.26,15,23.08,22.35,4,3.75,7.88,7.66,11.88,11.43,4.55,4.29,8.91,8.78,13.55,13a8.7,8.7,0,0,1,3.11,7.15q-.07,143.07,0,286.14,0,28,0,56c0,1.33-.08,2.65-.13,4Z"/>
        <path class="cls-2" d="M212.9,965c0-1.51-.13-3-.13-4.54V775.86c0-5.08.38-4.76-4.79-4.76-.76,0-1.52,0-2.28,0-3.08-.09-3.65-.66-3.73-3.67,0-.57,0-1.14,0-1.71,0-4.17-.16-8.35.05-12.51a8.7,8.7,0,0,0-2.93-7.24c-13-12.84-25.92-25.83-38.86-38.77-.4-.4-.77-.84-1.21-1.2a5,5,0,0,1-1.87-4.52c.08-1,0-2.09,0-3.13q0-61.3.08-122.59a9,9,0,0,0-2.91-7q-22.94-22.72-45.68-45.63C94.94,509.37,81.33,495.5,67.6,481.74a6.88,6.88,0,0,1-2-5.34c0-13.09,0-26.17,0-39.25,0-25.41,0-50.82.07-76.23a10.34,10.34,0,0,0-3.33-8.24C54,344.58,45.85,336.19,37.54,328c-9.93-9.77-19.48-19.92-29.34-29.77a6.21,6.21,0,0,1-1.85-4.83c.05-9.57-.06-19.15.08-28.72a8.14,8.14,0,0,0-2.73-6.48c-9.19-9-18.23-18.23-27.41-27.28a7.4,7.4,0,0,1-2.37-5.77c.07-68.83,0-137.66.24-206.5q.07-17.17.41-34.38c0-.69-.23-1.5.57-2,.77.72.52,1.61.51,2.4-.32,19.43.62,38.85.59,58.28-.08,59.92,0,119.84,0,179.76a10.42,10.42,0,0,0,3.44,8.18c9,8.75,17.68,17.72,26.58,26.52a7.64,7.64,0,0,1,2.53,6c-.12,9.48,0,19-.09,28.44a8.22,8.22,0,0,0,2.64,6.51c18,17.92,35.91,35.95,53.92,53.88a8.34,8.34,0,0,1,2.71,6.48c-.06,38.58,0,77.17-.07,115.76a8.86,8.86,0,0,0,2.76,6.74c21.33,22.11,43.39,43.49,65,65.31,7.13,7.21,14.23,14.46,21.48,21.55a8.88,8.88,0,0,1,2.92,7c-.07,41.15,0,82.3-.1,123.45a10.11,10.11,0,0,0,3.19,7.72c12.79,13.08,25.76,26,38.63,39a7.4,7.4,0,0,0,6,2.53c4.36-.18,8.72-.08,13.08,0,3.57,0,4.16.61,4.18,4.13q0,7.68,0,15.36c0,3.37-.58,3.9-4,4-1.23,0-2.47,0-3.7,0s-1.94.59-1.93,1.89c0,1,0,2.09,0,3.13q0,92.16,0,184.31c0,1.52-.08,3-.13,4.55Z"/>
        <path class="cls-2" d="M252.16,965c0-1.51-.14-3-.14-4.54q0-148.9.11-297.82a9.8,9.8,0,0,0-3.34-7.92c-11.33-10.5-22.29-21.38-33.41-32.1-4.71-4.53-9.34-9.15-14.12-13.62a6,6,0,0,1-2-4.76c.06-7.21,0-14.42.07-21.62a7.3,7.3,0,0,0-2.48-6c-10.91-10-21.09-20.73-31.71-31-3.47-3.36-6.85-6.81-10.31-10.18-12.27-12-24.36-24.17-36.69-36.09-8.38-8.11-16.52-16.45-25-24.48a7.6,7.6,0,0,1-2.57-6c.07-32.62-.23-65.24.16-97.85.22-17.82,0-35.64.34-53.46.05-2.71-.62-4.67-2.93-6.27a42.6,42.6,0,0,1-4.75-4.48Q72.08,296,60.74,285.3c-1.1-1-2.26-2-3.43-3a5.83,5.83,0,0,1-2.11-5c.08-8.63,0-17.26.08-25.88a7.81,7.81,0,0,0-2.59-6.25c-8.62-8.26-17.1-16.67-25.72-24.93a7.55,7.55,0,0,1-2.48-6c.1-12.71.05-25.41.06-38.12,0-.85,0-1.71,0-2.56-.15-1.75-.47-2.08-2.3-2.18-1.51-.08-3,0-4.55-.06-2.55-.11-3.29-.76-3.32-3.24q-.11-8.39,0-16.78c0-2.54,1.05-3.31,3.67-3a20.19,20.19,0,0,0,4.25.2c1.7-.15,2.08-.57,2.25-2.31.06-.66,0-1.33,0-2q0-62.29.08-124.59c0-.57,0-1.13,0-1.7a2.53,2.53,0,0,0-1.72-2.61c-5.77-2.73-5.38-6-4.92-10.49a3.26,3.26,0,0,1,.52-1.32c.39-.63.88-1.58,1.69-1.14,1,.54.1,1.36-.25,1.9-2.27,3.41-.34,7.67,2.91,9.07,2.59,1.12,6.59,1,8.81-3.45.34-.67.26-2.16,1.35-1.72s.35,1.68,0,2.51a6.82,6.82,0,0,1-4.49,4.44,2.82,2.82,0,0,0-2.29,3.35c0,.56,0,1.14,0,1.7q0,61.72.07,123.45c0,4.94,0,4.94,4.82,4.95h2c3.31,0,3.89.54,3.93,3.75q.07,7.39,0,14.79c0,3.36-.87,4.15-4.24,4.23-1.14,0-2.28,0-3.42,0-2.76.07-3,.32-3.06,3.18v.29c0,13,.05,26,0,39a5.81,5.81,0,0,0,2.16,5c4.66,3.76,8.61,8.26,12.94,12.37s8.85,8.57,13.36,12.75a6.82,6.82,0,0,1,2.34,5.49c-.1,8.35.07,16.69-.09,25a8.63,8.63,0,0,0,3,7.22c7.47,6.85,14.68,14,22.15,20.83,2.87,2.62,5.58,5.4,8.5,8A7,7,0,0,1,93,316.21c-.07,15.93-.29,31.86,0,47.78.7,34.89.12,69.77.31,104.66,0,2.24.37,4.1,2.46,5.33a9.29,9.29,0,0,1,1.66,1.55c8.74,8.68,17.35,17.51,26.25,26,11,10.49,21.53,21.37,32.47,31.87C166.25,543.08,176,553,186,562.7c4.43,4.29,8.81,8.61,13.28,12.86a7.12,7.12,0,0,1,2.34,5.77c-.11,7.2,0,14.41-.07,21.61a6.18,6.18,0,0,0,2.16,5c6.87,6.52,13.65,13.15,20.45,19.74,6.4,6.2,12.7,12.51,19.22,18.57,3.2,3,6.23,6.1,9.45,9a4.39,4.39,0,0,1,1.68,3.71c0,.85,0,1.71,0,2.56q0,149.63,0,299.24c0,1.42-.08,2.83-.13,4.25Z"/>
        <path class="cls-2" d="M243.62,965q0-145.92.09-291.84a10.16,10.16,0,0,0-3.42-8.18c-7.06-6.6-13.8-13.54-20.87-20.13-5.27-4.91-10.27-10.1-15.55-15-4.52-4.19-8.79-8.63-13.33-12.8a6.19,6.19,0,0,1-2.1-5c.08-7.68,0-15.36.08-23a6.34,6.34,0,0,0-2.55-5.67,9.46,9.46,0,0,1-1-1q-17.64-17.36-35.28-34.7c-18.5-18.09-36.83-36.36-55.29-54.49-6-5.84-11.83-11.76-17.88-17.5a5,5,0,0,1-1.77-4c0-.85,0-1.7,0-2.56q0-51.9,0-103.82c0-3.41.2-6.82.38-10.22a5.48,5.48,0,0,0-1.87-4.53c-6-5.77-12.1-11.46-18.22-17.13-5.35-4.95-10.55-10.07-15.87-15.07a5.42,5.42,0,0,1-1.6-4.35c0-9.39-.05-18.78.07-28.16a6.47,6.47,0,0,0-2.49-5.69c-3.37-2.64-6.21-5.85-9.27-8.81-5.94-5.72-11.82-11.5-17.85-17.12a8.36,8.36,0,0,1-2.83-6.71q.13-92.73.12-185.46c0-6.64,0-13.28,0-19.92,0-1.76-.33-2.92-2.24-3.71A8.27,8.27,0,0,1-2,30,8.72,8.72,0,0,1,5.3,22.65a8,8,0,0,1,9,6.46c.79,4.65-.57,7.37-4.92,9.39a2.73,2.73,0,0,0-1.86,2.83c0,.85,0,1.71,0,2.56q0,101,0,202a9.35,9.35,0,0,0,3.06,7.48c8.66,8.22,17.08,16.7,25.76,24.89a9.73,9.73,0,0,1,3.25,8c-.19,8.72,0,17.44-.1,26.17a6.13,6.13,0,0,0,2.13,4.95c9,8.43,17.83,17,26.82,25.42,2.07,1.94,4.1,3.94,6.26,5.78A6.71,6.71,0,0,1,77.11,354c.78,34.51.15,69,.35,103.53,0,4.26.07,8.53,0,12.8a6.08,6.08,0,0,0,1.93,4.79c7,6.91,13.88,14,21,20.79,9.45,8.92,18.47,18.27,27.82,27.27,11.68,11.24,23,22.81,34.7,34.06,8.73,8.43,17.25,17.06,26,25.47a7.23,7.23,0,0,1,2.36,5.77c-.1,7.49,0,15-.06,22.47a6.58,6.58,0,0,0,2.11,5.28c7.13,6.8,14.06,13.82,21.26,20.55,5.2,4.85,10.13,10,15.35,14.8,4.66,4.31,9,8.92,13.75,13.17a8.2,8.2,0,0,1,2.79,6.74q-.08,70.54,0,141.09V965Z"/>
        <path class="cls-2" d="M325,583.8q0-69.82,0-139.64a9.19,9.19,0,0,1,2.95-7.25C339.3,425.68,350.54,414.26,362,403a8.94,8.94,0,0,0,2.91-7q-.08-137.52.09-275c.05-20.09.12-40.19.36-60.28a8.87,8.87,0,0,0-2.91-7q-32.64-32.52-65.1-65.22a8,8,0,0,0-6.47-2.74c-4.07.2-8.15.07-12.23.05-3.77,0-4.34-.56-4.34-4.26,0-15.74,0-31.48,0-47.21a6.2,6.2,0,0,1,2-4.76c8-7.94,15.93-16,24-23.88a7.58,7.58,0,0,0,2.52-6c-.12-7.87-.09-15.74,0-23.61,0-2-.45-3.26-2.56-4.08a7.43,7.43,0,0,1-4.88-7c-.17-3.45.95-6.23,4-7.87,3.93-2.1,8.74-1.52,11.58,3.16,1.86,3.07,1.44,9.58-3.45,11.39-2.52.94-3.05,2.53-3,5,.13,8.15,0,16.3.1,24.46a7.65,7.65,0,0,1-2.44,6c-8,7.85-15.79,15.85-23.74,23.72a7,7,0,0,0-2.32,5.5c.11,7.58,0,15.16.06,22.75,0,3.2.21,3.4,3.38,3.42,4.36,0,8.72,0,13.08,0,3.72,0,4.47.81,4.5,4.56,0,4.93.13,9.86-.05,14.78A6,6,0,0,0,299-13q26.1,26,52.07,52.1c4.35,4.36,8.61,8.83,13.12,13a9.22,9.22,0,0,1,3,7.5c-.11,17.16-.17,34.32,0,51.48.85,94.8.14,189.59.4,284.39,0,.85-.06,1.71,0,2.56a5.91,5.91,0,0,1-2.1,5c-11.68,11.64-23.26,23.39-35,35a8.61,8.61,0,0,0-2.81,6.72q.12,69.52.06,139.06Z"/>
        <path class="cls-2" d="M172.51,965c0-1.42-.13-2.84-.13-4.26q0-83.06.06-166.1a9.19,9.19,0,0,0-3-7.21c-12-11.84-24-23.69-35.81-35.79-21.81-22.43-44.13-44.34-66.19-66.53-19.91-20-40.05-39.86-59.79-60.06-17.09-17.5-34.5-34.68-51.75-52a7.76,7.76,0,0,1-2.41-6q.08-46.93.05-93.87c0-55.27-.3-110.55.09-165.82.66-91.48.13-183,.52-274.45a10.82,10.82,0,0,0-3.54-8.73C-56.28,17.62-63,11-69.52,4-77.55-4.55-86-12.74-94.23-21.1a5.36,5.36,0,0,1-1.75-4c0-8.25,0-16.5,0-24.75,0-.8-.27-2.16.67-2.19,1.38-.05.89,1.4.9,2.22,0,7.68.11,15.36,0,23A7.34,7.34,0,0,0-91.94-21c14.8,14.7,29.48,29.51,44.33,44.16a10.52,10.52,0,0,1,3.45,8.19c-.05,88.74-.32,177.49.15,266.23.47,89.49.08,179,.29,268.48a8.14,8.14,0,0,0,2.58,6.24c24.49,24.44,49.08,48.79,73.31,73.5C53.28,667.28,74.75,688.44,96,709.84q24.13,24.33,48.37,48.57c9.48,9.54,18.87,19.18,28.39,28.7a7.15,7.15,0,0,1,2.22,5.52q-.08,47.65,0,95.29,0,36.54,0,73.1c0,1.32-.08,2.65-.13,4Z"/>
        <path class="cls-2" d="M346.59,583.8c0-1.13-.13-2.27-.13-3.4,0-24.65,0-49.31,0-74A7.8,7.8,0,0,1,349,500.2c9.49-9,18.86-18.11,28.33-27.13a6.35,6.35,0,0,0,2.33-5.19c-.14-4.07,0-8.15-.05-12.23a5.43,5.43,0,0,1,1.77-4.28q14.14-13.8,28.23-27.66l.62-.59c11.89-11.7,23.75-23.43,35.71-35.06a7.94,7.94,0,0,0,2.57-6.25q-.08-73.38,0-146.77a7.5,7.5,0,0,0-2.29-5.81c-7-6.93-13.89-14-20.94-20.9a7.91,7.91,0,0,1-2.56-6.25c.11-11.85,0-23.7,0-35.56,0-.75,0-1.51,0-2.27-.11-2.15-.38-2.44-2.51-2.53-1.52-.06-3,0-4.55-.05-2.32-.12-3.21-1-3.53-3.26a15.68,15.68,0,0,1-.1-2.27q0-5.83,0-11.66a18.14,18.14,0,0,1,.13-2.56c.35-2.7,1.15-3.47,3.85-3.52,3.51-.06,7,0,10.53,0,7.45-.08,5.35.83,10.57-4.39Q479.62,91.56,522,49.12a8.11,8.11,0,0,0,2.59-6.24q-.07-46.23,0-92.45c0-.57,0-1.14,0-1.7a2.65,2.65,0,0,0-2-3,8,8,0,0,1-5.29-7.14,8.27,8.27,0,0,1,8.16-9c4.41-.12,8.37,2.78,8.56,8.34.11,3.15-1.34,6.15-4.52,7.29-2.88,1-3.22,2.85-3.21,5.46.08,30.91,0,61.82.15,92.73a9.15,9.15,0,0,1-3,7.23c-8.28,8.07-16.54,16.18-24.54,24.53-20.28,21.14-41.33,41.51-61.94,62.33a5.24,5.24,0,0,0-1.7,4.23c.16,5.4.1,10.81.06,16.21,0,3-.75,3.65-3.73,3.74-1.42,0-2.85,0-4.27,0-1.78.11-2.06.43-2.2,2.26,0,.47,0,.94,0,1.42,0,12,.05,24.08,0,36.12a7,7,0,0,0,2.31,5.49c7.17,7,14.2,14.23,21.38,21.27a7.39,7.39,0,0,1,2.46,5.73q-.08,74.52,0,149a7,7,0,0,1-2.3,5.49c-9.14,8.95-18.06,18.14-27.29,27-10.73,10.31-21.26,20.82-31.82,31.3q-2.62,2.61-5.43,5a5.86,5.86,0,0,0-2.05,5c.11,4,0,8,.05,11.94a5.73,5.73,0,0,1-1.81,4.56c-10.12,9.72-20.17,19.5-30.28,29.22a3.74,3.74,0,0,0-1.35,3c0,.85,0,1.7,0,2.56q0,35.83,0,71.68c0,1.32-.09,2.64-.13,4Z"/>
        <path class="cls-2" d="M309,583.8c0-1.61-.13-3.22-.13-4.82L309,84.11c0-6.16.58-4.62-3.66-8.88-9.49-9.54-19.18-18.91-28.5-28.61-7.95-8.27-16.07-16.37-24.15-24.49a5,5,0,0,1-1.7-4c0-.66,0-1.32,0-2Q251-59,251-134a9.58,9.58,0,0,1,3.07-7.49c11-10.76,21.73-21.71,32.64-32.51a7.69,7.69,0,0,0,2.53-6c-.11-10-.08-19.91,0-29.87,0-2.34-.39-3.89-2.83-5.16-4.17-2.18-5.77-6.5-2.95-11.42a8.27,8.27,0,0,1,11-2.79,7.38,7.38,0,0,1,3.83,6.82c0,3.18-.85,6-3.88,7.32-2.61,1.11-3.08,2.8-3.06,5.32.11,10.24,0,20.48.1,30.71a7.1,7.1,0,0,1-2.31,5.51c-11.11,11-22.11,22.14-33.22,33.14a8.07,8.07,0,0,0-2.65,6.22q.12,75.23.05,150.45a7.76,7.76,0,0,0,2.49,6q22.3,22.13,44.48,44.4c3.08,3.09,6.09,6.25,9.21,9.29a5.28,5.28,0,0,1,1.91,4.51,18.87,18.87,0,0,0,0,2q0,248.43.09,496.86c0,1.52-.08,3-.13,4.54ZM284-221.81a6.45,6.45,0,0,0,6.43,6.23c3.19.05,6.51-3.33,6.53-6.64,0-3-3.37-6.36-6.47-6.36A6.52,6.52,0,0,0,284-221.81Z"/>
        <path class="cls-2" d="M356.83,583.8c0-24.46,0-48.92,0-73.38a8.82,8.82,0,0,1,2.74-6.76c22.68-23.3,45.91-46.06,68.83-69.12,11.3-11.36,22.57-22.74,33.95-34A8.34,8.34,0,0,0,465,394q-.09-86.32,0-172.64c0-1,0-2.09,0-3.13A4.17,4.17,0,0,1,466.4,215c.29-.25.54-.54.81-.81C489.91,190.9,513,168,536,145a9,9,0,0,0,2.89-7q-.06-117.32.12-234.64c0-12.31.37-24.63.44-36.95,0-.64.12-1.29.21-2.24,1.17.84.87,1.82.88,2.63,0,7.77-.06,15.55.05,23.32,1.15,82.57.24,165.14.57,247.7,0,1,0,2.09,0,3.13a4.42,4.42,0,0,1-1.61,3.77c-.43.38-.81.8-1.21,1.21q-33.94,34-67.93,68a8.72,8.72,0,0,0-2.77,6.75q.12,85.76.08,171.51a24.29,24.29,0,0,0,0,2.56c.29,2.67-.78,4.63-2.68,6.52-20.73,20.69-41.54,41.31-62,62.24-13.66,14-27.53,27.7-41.3,41.54a7.18,7.18,0,0,0-2.09,5.59q.06,36.56,0,73.1Z"/>
        <path class="cls-2" d="M420,583.8c0-18.2,0-36.41-.05-54.61a8.65,8.65,0,0,1,2.75-6.76c18.31-18.16,36.64-36.3,54.71-54.7q14.06-14.31,28.23-28.47a6.51,6.51,0,0,0,2-5.05c-.06-12.8,0-25.6,0-38.4,0-23.79,0-47.59,0-71.39a8.35,8.35,0,0,1,2.69-6.5Q537,291.39,563.6,264.67q23.71-23.73,47.44-47.48a7.14,7.14,0,0,0,2.27-5.51q0-123.45.08-246.89c0-.67,0-1.33,0-2,0-1.69-1.21-2.13-2.47-2.71a7.85,7.85,0,0,1-4.79-7.45,7.81,7.81,0,0,1,4.7-7.52,8.17,8.17,0,0,1,11,3.55c2.15,4.29.66,9.53-3.68,11.28-2.74,1.1-3,2.76-3,5.24q.13,122.87.16,245.75c0,.95-.05,1.9,0,2.84a4.33,4.33,0,0,1-1.55,3.79c-.22.19-.4.4-.6.61Q588,243.77,562.64,269.1C546,285.7,529.46,302.42,512.8,319a7.76,7.76,0,0,0-2.45,6c.07,36.41,0,72.81.12,109.22a9.27,9.27,0,0,1-3,7.22q-28.05,27.84-55.94,55.87c-8.84,8.86-17.61,17.79-26.5,26.6a7.14,7.14,0,0,0-2.22,5.53c.07,18.11,0,36.22,0,54.33Z"/>
        <path class="cls-2" d="M193,965c0-1.42-.13-2.84-.13-4.26q0-81.62.06-163.25a8.9,8.9,0,0,0-2.91-7c-11.68-11.5-23.24-23.14-34.82-34.75s-23-23.14-34.54-34.64a7.13,7.13,0,0,1-2.21-5.54c.06-20.85,0-41.71.1-62.57a8.67,8.67,0,0,0-2.77-6.74q-38.25-38.14-76.33-76.5c-5.39-5.45-10.67-11-16.14-16.41-1.47-1.46-1.65-3.06-1.65-4.9q0-32.85,0-65.7c0-6.4.06-6.46-4.56-11.16C10.6,465,4,458.47-2.57,451.9c-3.08-3.09-6.09-6.25-9.28-9.22a7,7,0,0,1-2.34-5.77c.14-5.5,0-11,.09-16.5,0-2.22-.43-3.53-2.8-4.46a8.27,8.27,0,0,1-4.52-10.87,8.72,8.72,0,0,1,11.29-4.91A8.23,8.23,0,0,1-4.85,407c.54,3.55-.76,6.6-3.82,8.23-2.78,1.48-3.21,3.43-3.12,6.19.17,5.11.12,10.24,0,15.36a6.12,6.12,0,0,0,2,4.75C.74,452,11.15,462.49,21.67,472.88a7.67,7.67,0,0,1,2.49,6c-.07,22.66,0,45.32-.08,68a8.14,8.14,0,0,0,2.69,6.48c5.81,5.59,11.45,11.35,17.13,17.06,25,25.12,49.81,50.46,75,75.36a7.49,7.49,0,0,1,2.4,5.76c-.06,20.86,0,41.72-.09,62.57a8.93,8.93,0,0,0,2.9,7q24.65,24.42,49.1,49c6.77,6.77,13.46,13.62,20.26,20.37a6.2,6.2,0,0,1,1.92,4.78q0,83.61,0,167.23c0,.85-.09,1.7-.13,2.55Z"/>
        <path class="cls-2" d="M284.58,583.8c0-1.61-.13-3.22-.13-4.82q0-160.56.11-321.11c0-3.51-.8-6.14-3.51-8.42-2.53-2.13-4.72-4.66-7.08-7a4.82,4.82,0,0,0-2.09-1.59c-.65,1.11-.4,2.26-.4,3.35q0,32.28,0,64.56c0,18.11,0,36.21.06,54.32,0,2.68-.62,4.75-2.7,6.49-1.73,1.47-3.21,3.23-4.86,4.79a4.37,4.37,0,0,0-1.47,3.53c.06,2.37,0,4.74,0,7.11,0,16.11.1,32.23-.07,48.35a9.39,9.39,0,0,0,3.36,7.91,71.84,71.84,0,0,1,6.93,7.13,6.21,6.21,0,0,1,1.61,4.38c0,4,.08,8,0,11.94a3.82,3.82,0,0,0,2.49,4.17,8.56,8.56,0,0,1,3.81,11.44c-1.67,3.51-5,5.12-9.51,4.62-3.21-.35-6.12-3.18-6.9-6.7a8.74,8.74,0,0,1,4.13-9.24,7.2,7.2,0,0,1,1.53-.74,2.21,2.21,0,0,0,1.61-2.38c0-4.46,0-8.92,0-13.37a4.42,4.42,0,0,0-1.59-3.21c-2.69-2.67-5.33-5.4-8.06-8a5.75,5.75,0,0,1-1.88-4.53q.07-29.72,0-59.44a5.85,5.85,0,0,1,2-4.74c1.61-1.46,3-3.15,4.66-4.59a5.55,5.55,0,0,0,2-5c-.08-.84,0-1.7,0-2.55q0-60.74,0-121.45a25.49,25.49,0,0,1,.18-3.39c.1-.7.67-.92,1.27-.48a12.43,12.43,0,0,1,1.47,1.34c4.54,4.57,9,9.19,13.63,13.72a5.54,5.54,0,0,1,1.73,4.3c-.07,4.74,0,9.48,0,14.22q0,155.29,0,310.58c0,1.51-.09,3-.13,4.54Z"/>
        <path class="cls-2" d="M470.61,583.8c-.05-1.13-.14-2.27-.14-3.4q0-39.82,0-79.63a8.45,8.45,0,0,1,2.62-6.51c16.6-17.05,33.49-33.8,50.35-50.58a7.41,7.41,0,0,0,2.32-5.77c-.05-35.93,0-71.85-.07-107.78a9.33,9.33,0,0,1,3.05-7.49c5.44-5.13,10.71-10.46,15.93-15.84,23.31-24,47.16-47.47,70.78-71.16q26.1-26.19,52.27-52.3a8.1,8.1,0,0,0,2.63-6.22q-.07-65,0-130a10.81,10.81,0,0,1,0-1.14c.2-1.94-.57-3.06-2.42-3.94A8,8,0,0,1,664,31.46a8.3,8.3,0,0,1,15.84,1.68c.66,4.15-.92,7.65-4.66,9-2.42.9-2.71,2.37-2.7,4.54q.07,64.56.07,129.12c0,1-.05,2.09,0,3.13a4.55,4.55,0,0,1-1.63,4,5,5,0,0,0-.4.4Q647.24,207,623.93,230.5q-46.56,46.74-93.23,93.38a8,8,0,0,0-2.61,6.22c.08,36.11,0,72.23.13,108.35a8.74,8.74,0,0,1-2.74,6.75c-16.71,16.93-33.4,33.88-50.32,50.6a7.1,7.1,0,0,0-2.19,5.54q.09,39.1,0,78.21c0,1.42-.08,2.83-.13,4.25ZM671.79,28.54a6.48,6.48,0,0,0-6.48,6.22,6.39,6.39,0,0,0,12.78.17A6.5,6.5,0,0,0,671.79,28.54Z"/>
        <path class="cls-2" d="M380.84,431.07a2.06,2.06,0,0,0,1.8-.88c4-3.92,8-7.81,12-11.69,8.47-8.15,16.61-16.64,25.11-24.76,5.48-5.24,10.77-10.67,16.29-15.87a6.19,6.19,0,0,0,2.05-5c-.05-18.4,0-36.79,0-55.18,0-25.51,0-51,.08-76.51a7.78,7.78,0,0,0-2.62-6.23c-3.79-3.57-7.45-7.29-11.08-11C413.3,212.46,402.1,201,390.68,189.78a6.5,6.5,0,0,1-2-5.09c0-18.67-.23-37.35.07-56,.74-44.93.13-89.86.4-134.8,0-6.08-.57-4.67,3.83-9.1,6.94-7,13.88-14,20.9-20.93a6.48,6.48,0,0,0,2.05-5q-.06-28.57,0-57.17c0-2.18-.62-3.4-2.75-4.29-3.17-1.32-4.69-4-4.64-7.49a7.87,7.87,0,0,1,4.83-7.46A8.13,8.13,0,0,1,424.21-114c2.12,4.17.7,9.42-3.48,11.17-2.69,1.12-3.06,2.77-3.05,5.26.08,19.06,0,38.11.12,57.17a8.24,8.24,0,0,1-2.72,6.48c-7.33,7.15-14.48,14.49-21.78,21.67a7.07,7.07,0,0,0-2.3,5.5c.06,43.14-.19,86.28.2,129.41.19,20.48.1,40.95.24,61.42a7.49,7.49,0,0,0,2.41,5.75c14.73,14.63,29.36,29.36,44.1,44a8.08,8.08,0,0,1,2.61,6.23q-.07,66.71.05,133.4a7.93,7.93,0,0,1-2.63,6.21c-6.41,6.2-12.57,12.65-19,18.77-10,9.46-19.59,19.27-29.44,28.86-3,2.9-6,5.76-9,8.66-.41.4-.85.92-1.45.76-.82-.23-.67-1.05-.69-1.68,0-1.14,0-2.28,0-3.42q.07-243,.14-486.08a16.52,16.52,0,0,1,0-2,4.22,4.22,0,0,0-2.82-4.89,8.12,8.12,0,0,1-4.31-9c1-4.06,4.09-6.79,8.05-6.77s7,1.73,8.26,5.69,0,8.23-3.55,9.84c-3,1.38-3.44,3.35-3.43,6.24q.13,241.62.17,483.24C380.85,428.86,380.84,429.9,380.84,431.07ZM423.3-110c.05-3.17-3.2-6.53-6.28-6.51a6.61,6.61,0,0,0-6.43,6.27,6.63,6.63,0,0,0,6.19,6.54C419.91-103.61,423.26-106.85,423.3-110Z"/>
        <path class="cls-2" d="M-14.87,316.66a5.85,5.85,0,0,0-.3,2.69c0,11.76,0,23.51,0,35.26A6.69,6.69,0,0,0-13,359.86q7.76,7.53,15.28,15.29a6.84,6.84,0,0,0,5.53,2.23c4.17-.12,8.34,0,12.51,0a14.27,14.27,0,0,1,2.27.12c1.78.31,2.56,1,2.58,2.83q.1,8.82,0,17.63c0,1.83-.82,2.53-2.66,2.68-1.5.13-3,0-4.54.1-2,.1-2.32.36-2.37,2.36-.07,3.12,0,6.25,0,9.38,0,4.65.06,9.29,0,13.94,0,2,.44,3.23,2.49,4.16a8.37,8.37,0,0,1,3.7,12,8.55,8.55,0,0,1-12.36,2.6,8.43,8.43,0,0,1,1-14.4c2.31-1.13,2.92-2.45,2.88-4.8-.12-7.11,0-14.22,0-21.33,0-.67,0-1.33,0-2a1.72,1.72,0,0,0-1.93-1.93c-1.8,0-3.61,0-5.41-.06-2.7-.09-3.38-.72-3.41-3.4-.06-5.12-.11-10.24,0-15.35a7,7,0,0,0-2.3-5.5C-5.32,371-10.43,365.25-16,360a4.61,4.61,0,0,1-1.56-3.51q0-22,0-44.08A1.83,1.83,0,0,1-17,310.9c1.08,0,1.62,1,2.31,1.72Q-4.24,323,6.21,333.52c11.51,11.54,23,23.13,34.56,34.6a8.35,8.35,0,0,1,2.71,6.49c-.07,38.39,0,76.78-.07,115.17a8.15,8.15,0,0,0,2.76,6.74c2.89,2.58,5.57,5.41,8.28,8.21,23,23.77,46.65,46.9,70,70.36,5,5,9.94,10.17,15,15.12a7.65,7.65,0,0,1,2.48,6q-.09,45.64,0,91.29c0,.85.07,1.71,0,2.55-.16,1.72.35,2.89,2.13,3.48a7,7,0,0,1,3.68,3,8.43,8.43,0,0,1,.44,9.16,8.2,8.2,0,0,1-8,4.4c-3.57-.17-6.43-1.9-7.6-5.45-1.59-4.84-.2-8.86,4.56-11.14a3.4,3.4,0,0,0,2.34-3.59q-.06-46.78,0-93.56a5.25,5.25,0,0,0-1.93-4.49,8.63,8.63,0,0,1-.8-.8q-46.43-46.49-92.87-92.93a9,9,0,0,1-2.88-7c.09-38.1,0-76.21.16-114.32a10.87,10.87,0,0,0-3.52-8.46C23.12,354,8.75,339.59-5.66,325.18c-2.35-2.35-4.68-4.71-7-7C-13.29,317.57-13.73,316.76-14.87,316.66ZM20.47,438.09a6.34,6.34,0,0,0-6.29-6,6.36,6.36,0,0,0-5.91,6.12,6.24,6.24,0,0,0,6.14,6.15A6.27,6.27,0,0,0,20.47,438.09Z"/>
        <path class="cls-2" d="M345.6,69.16c-1,.14-1.45.83-2,1.35-4.84,4.82-9.62,9.68-14.5,14.45a5.85,5.85,0,0,0-1.87,4.53q.06,49.21.05,98.41c0,3.1.16,3.23,3.18,3.28,1.32,0,2.66-.05,4,0,1.81.13,2.28.64,2.47,2.45a13.47,13.47,0,0,1,0,1.42c0,4.93,0,9.86,0,14.79,0,3.69-.58,4.21-4.35,4.25-1.05,0-2.09,0-3.13,0-1.81.12-2,.38-2.16,2.26,0,.66,0,1.32,0,2q0,87.89.05,175.76c0,.29,0,.57,0,.86a3.19,3.19,0,0,0,2.38,3.84,8.21,8.21,0,0,1,5,8.2,8,8,0,0,1-5.55,7.53c-4.74,1.39-9.13-.15-11-4.48a8.46,8.46,0,0,1,4.53-11.36,3,3,0,0,0,2.14-3.44c-.06-.65,0-1.32,0-2q0-87.16,0-174.34c0-5.11.35-4.86-4.72-4.85h-.86c-4.93,0-5.22-.29-5.22-5.09,0-4.46,0-8.91,0-13.37,0-.47,0-.95,0-1.42.12-2.49.59-3,3.05-3.07,1.8-.06,3.6,0,5.4,0,2-.07,2.23-.33,2.33-2.37.05-.95,0-1.9,0-2.85q0-48.06,0-96.13a8.8,8.8,0,0,1,2.93-7c5.81-5.58,11.43-11.36,17.15-17,.7-.7,1.26-1.66,2.36-1.84.79.91.49,1.9.5,2.8.05,2.84,0,5.69,0,8.53.63,65,.34,130.06.37,195.09,0,2.35.56,3.76,2.82,4.88a8.22,8.22,0,0,1,4.26,9.59,8.69,8.69,0,0,1-16.93-.3c-.8-3.32.68-7.48,3.89-9,2.86-1.35,3.28-3.25,3.28-6.06-.07-52.9-.17-105.8.06-158.7,0-12.79.21-25.59.3-38.38A7.55,7.55,0,0,0,345.6,69.16ZM326,400.65a6.15,6.15,0,0,0-5.93,6,6,6,0,0,0,12.09,0A6.1,6.1,0,0,0,326,400.65Z"/>
        <path class="cls-2" d="M542.74,172.91c-2.94,2.94-5.75,5.73-8.55,8.54l-45,45.12c-.54.54-1,1.11-1.61,1.61A4.35,4.35,0,0,0,486,232c.06.75,0,1.52,0,2.27q0,85.91.05,171.79c0,5.16-.27,4.69,4.83,4.71.86,0,1.71,0,2.56,0,2.59.1,3.36.81,3.39,3.48.07,5.4.06,10.81,0,16.21,0,2.67-.7,3.31-3.45,3.34-5.11.05-10.24.12-15.35,0a7.13,7.13,0,0,0-5.76,2.33q-20.18,20.44-40.51,40.74-16.67,16.71-33.4,33.37a6.2,6.2,0,0,0-2.21,5.23,38.46,38.46,0,0,1,0,5.68,3.08,3.08,0,0,0,2.17,3.46,8,8,0,0,1,5,6.72c.52,4.13-2.15,8.48-5.92,9.25-4.84,1-8.78-.36-10.63-4.82a8.73,8.73,0,0,1,3.94-11,5.32,5.32,0,0,1,1.29-.58c1.26-.29,1.62-1.12,1.6-2.3,0-2.47.1-4.94,0-7.39a6.44,6.44,0,0,1,2.14-5.28c8.35-8.27,16.58-16.66,24.89-25,13.12-13.15,26.32-26.24,39.4-39.44,4-4,7.79-8.27,11.88-12.22a4.82,4.82,0,0,0,1.52-3.81c0-4.17,0-8.34,0-12.51a19.79,19.79,0,0,1,.09-2.56c.28-2.09,1-2.78,3.15-2.88,1.51-.06,3,0,4.55,0,2-.08,2.21-.28,2.31-2.37,0-.94,0-1.89,0-2.84q0-86,0-172.07a9.28,9.28,0,0,1,3.06-7.49q7-6.48,13.5-13.44c13.64-14.51,28.08-28.22,42-42.4.84-.85,1.67-2.5,2.8-2.1,1.46.53.72,2.35.72,3.58,0,25.5,0,51,.1,76.51A8.53,8.53,0,0,1,543,254.8c-6.74,6.54-13.33,13.22-19.94,19.89-3.53,3.57-6.92,7.27-10.46,10.83-1.06,1.08-1,1.94-.45,3.25a8.64,8.64,0,1,1-16.25,5.71,8.72,8.72,0,0,1,5.39-10.35,7.37,7.37,0,0,1,6.08.09c1.69.9,2.86.41,3.93-.93a3,3,0,0,1,.4-.4q14.77-14.79,29.58-29.54a6.18,6.18,0,0,0,2.13-4.71q-.07-36.54,0-73.09A3.53,3.53,0,0,0,542.74,172.91ZM400.62,532.2a5.88,5.88,0,0,0-5.9-6,6.24,6.24,0,0,0-5.86,6.16,5.77,5.77,0,0,0,6,5.81C398.36,538.18,400.66,535.77,400.62,532.2Z"/>
        <path class="cls-2" d="M90.81,677.05a7.26,7.26,0,0,0,.35-3.34c0-5.69,0-11.38,0-17.07a6.43,6.43,0,0,0-2-5q-34.7-34.67-69.29-69.46a4.16,4.16,0,0,0-4.7-1.24c-5,1.35-9.42-1.23-10.73-5.88a8.62,8.62,0,0,1,3.66-9.68,8.52,8.52,0,0,1,10.09.5c2.87,2.27,4.25,6.36,2.71,9.69-1,2.17-.44,3.3,1.06,4.84,23,23.5,46.35,46.68,69.64,69.91A7.37,7.37,0,0,1,94,656c-.11,8.06,0,16.12-.06,24.18,0,1,.38,2.39-.69,2.85s-1.8-.8-2.48-1.51c-21-21.9-42.81-43-64.16-64.54q-23.43-23.64-47-47.11c-1.95-1.95-3-3.89-2.86-6.71s-.17-3.13-3.27-3.17c-1.32,0-2.66.05-4,0-2.06-.15-3-1-3-3q-.1-8.67,0-17.35c0-2.05.95-2.85,3-3,1.7-.1,3.41-.06,5.12-.06a1.86,1.86,0,0,0,2.12-2.08c0-.66,0-1.32,0-2q0-28.44,0-56.88c0-.48,0-.95,0-1.42A2.85,2.85,0,0,0-25.31,471a7.59,7.59,0,0,1-4.92-5.81A8.49,8.49,0,0,1-25,455.05a8.85,8.85,0,0,1,11,4.51c2.2,4.53-.49,9.27-3.38,10.93a12,12,0,0,1-1.53.75,2.24,2.24,0,0,0-1.46,2.22c0,.76,0,1.51,0,2.27q0,28.31,0,56.6c0,4.24,0,4.24,4.26,4.26,5.63,0,6,.37,6,6,0,4.37,0,8.73,0,13.09,0,3.53-.86,4.31-4.41,4.37-1.32,0-2.65,0-4,0a1.69,1.69,0,0,0-1.79,1.78,7.07,7.07,0,0,0,2,6.15C-2,584.67,14.55,601.11,31,617.61q28.53,28.59,57,57.19A7.79,7.79,0,0,0,90.81,677.05Z"/>
        <path class="cls-2" d="M571.66,234.36c1.31-.28,1.86-1.24,2.57-1.94,6.86-6.82,13.63-13.73,20.56-20.46a8.23,8.23,0,0,0,2.69-6.49q-.08-82.49,0-165c0-36.78-.18-73.57.15-110.35.12-12.12.29-24.25.43-36.37,0-.69-.23-1.5.57-2.05.77.71.52,1.61.51,2.4-.32,19.52.61,39,.59,58.55q-.09,126.57.11,253.12a9.83,9.83,0,0,1-3.19,7.72c-8.35,8.14-16.49,16.49-24.73,24.74-.7.7-1.24,1.68-2.53,1.85-.69-1.16-.4-2.41-.4-3.58q0-62.58,0-125.14c0-5.83.42-5.4-5.35-5.41-.57,0-1.14,0-1.71,0-2.52-.16-3.2-.78-3.22-3.3q-.08-8.11,0-16.21c0-2.79.56-3.24,3.41-3.3,1.52,0,3,0,4.55,0,1.86-.1,2.2-.4,2.29-2.16s0-3.41,0-5.12a4,4,0,0,0-1.5-3c-1.62-1.6-3.13-3.33-4.85-4.8a7.94,7.94,0,0,1-2.84-6.71c.12-16.78.07-33.56.08-50.34a21.47,21.47,0,0,1,0-2.27c.24-2.15-.5-3.45-2.62-4.39a7.56,7.56,0,0,1-4.81-7.92c.26-4.7,3.24-7.43,8-7.83,5.9-.5,10.41,6.31,7.7,11.92a7.24,7.24,0,0,1-4.25,4A3.07,3.07,0,0,0,561.65,8c.07,2.18,0,4.36,0,6.54,0,15.26.07,30.52,0,45.79A8,8,0,0,0,564.48,67c1.87,1.59,3.48,3.49,5.27,5.18A4.64,4.64,0,0,1,571.3,76c0,1,0,1.9,0,2.84,0,4.32,0,4.32,4.46,4.33.86,0,1.71,0,2.56,0,2.37.14,3.14.77,3.17,3.08q.12,8.23,0,16.49c0,2.41-.85,3.11-3.35,3.22-1.61.07-3.23,0-4.84.06a1.75,1.75,0,0,0-2,1.91c0,.76,0,1.52,0,2.28q0,60.57,0,121.15A6.8,6.8,0,0,0,571.66,234.36ZM566.75-2.9a6.24,6.24,0,0,0-6-6.6c-3.2-.11-6.38,3-6.41,6.37a6.52,6.52,0,0,0,6.2,6.24A6,6,0,0,0,566.75-2.9Z"/>
        <path class="cls-2" d="M211.05,469.23a8.3,8.3,0,0,0,.3-3.32q0-49.49,0-99c0-.47,0-.95,0-1.42a2.92,2.92,0,0,0-2.18-3.41c-5.86-2.24-6.73-9.27-3.21-13.46a7.2,7.2,0,0,1,3.44-2.43,2.51,2.51,0,0,0,1.95-3c0-.66,0-1.33,0-2l0-95.56a13.45,13.45,0,0,1,0-1.42,3.4,3.4,0,0,0-2.63-4.06c-4.57-1.52-6.61-8.65-2.93-12.95a8.08,8.08,0,0,1,9-2.66,7.94,7.94,0,0,1,5.81,7c.45,3.53-.89,6.86-4.12,8.33-2.48,1.12-2.92,2.7-2.92,5.1q.09,48.5,0,97c0,2.34.44,3.84,2.82,4.85,3.11,1.31,4.36,4.25,4.37,7.42s-1.4,6.28-4.6,7.58c-2.25.91-2.58,2.27-2.58,4.35q.09,39.26.05,78.5,0,13.37,0,26.73a6.2,6.2,0,0,1-.3,2.95c-1,.29-1.31-.44-1.75-.88-10.39-10.38-20.75-20.8-31.19-31.14a6.82,6.82,0,0,1-2.14-5.28q.09-104.67.06-209.32c0-2.26.45-4,2.45-5.35a17.09,17.09,0,0,0,2.47-2.35q23.44-23.42,46.91-46.8c3.57-3.54,6.67-7.51,10.38-10.9,1.24-1.13,1-2.17.47-3.54a8.23,8.23,0,0,1,3.25-10.4,7.88,7.88,0,0,1,12,6.45c.27,6.77-4.53,10.43-11,8.21a3.12,3.12,0,0,0-3.72,1c-6.47,6.53-13.13,12.88-19.45,19.56-12.63,13.37-25.82,26.19-38.8,39.21a8.75,8.75,0,0,0-2.76,6.75q.12,102.81.06,205.62a8.9,8.9,0,0,0,2.66,6.86q13,12.92,26,25.93A3.54,3.54,0,0,0,211.05,469.23Zm37.74-320.14a6.38,6.38,0,0,0-6.65,6.3,6.75,6.75,0,0,0,6.12,6.66A7.19,7.19,0,0,0,255.1,156C255.34,152.83,252.06,149.26,248.79,149.09Z"/>
        <path class="cls-2" d="M27.39,699.35c-6.49,0-5.84-.49-5.87,5.37,0,4.76-.22,5-5,5s-9.67,0-14.5,0c-3,0-3.8-.78-3.94-3.89-.07-1.42,0-2.84-.05-4.26s-.56-2.16-2-2.15H-9.09c-1.39,0-2.21,1-3.08,1.83-6,6-12.14,12-18.06,18.13a8.52,8.52,0,0,1-7,2.92c-6.82-.18-13.65,0-20.48-.09-2.11,0-3.43.41-4.4,2.57a8.06,8.06,0,0,1-9,4.42c-4.32-.89-6.9-3.63-7.22-7.63a8.41,8.41,0,0,1,5.39-8.8c4.24-1.61,9.16-.11,11,4.34a3.64,3.64,0,0,0,4,2.64q10.53-.13,21,0a5.79,5.79,0,0,0,4.5-1.92c6.12-6.21,12.39-12.27,18.25-18.72a6.23,6.23,0,0,1,5.5-2.27c1.6.13,3.22,0,4.83,0A1.61,1.61,0,0,0-2,695.06c0-1.51,0-3,.08-4.55.13-3.1.88-3.88,3.92-3.9,5.31,0,10.62,0,15.93,0,2.83,0,3.46.72,3.55,3.59,0,1.42,0,2.84,0,4.26.08,2.08.26,2.28,2.31,2.35a53.8,53.8,0,0,0,5.68,0A6.21,6.21,0,0,1,34.77,699c10.28,10.37,20.64,20.66,30.95,31C77,741.26,88.15,752.59,99.45,763.81a7.38,7.38,0,0,1,2.32,5.77c-.07,16.31,0,32.61-.07,48.92a7.08,7.08,0,0,0,2.24,5.5q15.44,15.33,30.69,30.84c1.45,1.48,2.68,2.1,4.9,1.51a8.41,8.41,0,0,1,10,5.43,8.72,8.72,0,1,1-16.06-.74c1.15-2.55,1.16-2.56-.74-4.45-10.18-10.19-20.31-20.44-30.61-30.52a9.44,9.44,0,0,1-3-7.48c.13-15.93,0-31.85.12-47.78a8,8,0,0,0-2.62-6.21c-11.2-11.05-22.3-22.21-33.41-33.35-9.51-9.53-19-19-28.44-28.67C32.5,700.24,30.22,698.63,27.39,699.35Zm-91,21.32a6.07,6.07,0,0,0-6-5.93,6.07,6.07,0,0,0-6.05,6.17,6.41,6.41,0,0,0,6.16,5.91A6.32,6.32,0,0,0-63.61,720.67Z"/>
        <path class="cls-2" d="M285.34,155.69c.57-.82.31-1.79.31-2.69,0-16.4,0-32.8.06-49.2a7.31,7.31,0,0,0-2.21-5.54C264.36,78.26,244.45,59,225,39.39a8.16,8.16,0,0,1-2.54-6.27q.12-88.59.12-177.19c0-.94-.07-1.9,0-2.84.21-2.16-.57-3.41-2.7-4.32a8.31,8.31,0,0,1-4-11.28A8.54,8.54,0,0,1,227.54-166a8,8,0,0,1,4.08,7.62c-.12,3.16-1.37,5.92-4.45,7-2.54.89-2.89,2.39-2.89,4.71q.12,89.16.09,178.33a7.73,7.73,0,0,0,2.43,6c13.86,13.88,27.62,27.87,41.43,41.8C274,85.3,279.71,91.1,285.56,96.78a7.63,7.63,0,0,1,2.53,6c-.09,18.39,0,36.78-.06,55.17,0,1.09.56,2.62-.57,3.15s-1.91-.94-2.63-1.71c-13.18-14-27.1-27.32-40.62-41-8.66-8.77-17.4-17.46-26.05-26.24-1.27-1.29-2.29-1.78-4.17-1a8.09,8.09,0,0,1-10.16-3.32A8.61,8.61,0,0,1,215.67,75.9a8.28,8.28,0,0,1,3.39,10.17c-.91,2.07-.38,3.22,1.06,4.67q30,30.11,59.93,60.31c1.27,1.28,2.53,2.56,3.83,3.81C284.26,155.24,284.57,155.8,285.34,155.69Zm-62-320.58a6.42,6.42,0,0,0-6.36,6c0,3.26,3.08,6.5,6.26,6.49a6.22,6.22,0,0,0,6.16-6.4A5.83,5.83,0,0,0,223.35-164.89Z"/>
        <path class="cls-2" d="M145.25,103.06c-.82-.66-1.81-.36-2.71-.37-4,0-8,0-11.94,0-3.14,0-3.81-.73-3.84-3.92q-.06-7.81,0-15.64c0-3,.75-3.68,3.74-3.72,4.83,0,9.66,0,14.49,0,3.19,0,3.36-.18,3.36-3.42q0-39.09,0-78.19a3.75,3.75,0,0,0-2.65-4,8.27,8.27,0,0,1-4.61-9.7,8.49,8.49,0,0,1,8-6.48,8.8,8.8,0,0,1,8.56,6.22,8.47,8.47,0,0,1-3.84,9.56,11,11,0,0,1-1.52.79,2.59,2.59,0,0,0-1.69,2.68c0,1,0,1.9,0,2.84,0,21.14.22,42.27-.09,63.4q-.25,18-.27,36.09a6.55,6.55,0,0,1-2.34,4.92q-17.31,17.27-34.55,34.61c-.47.47-.91,1-1.41,1.4a2.42,2.42,0,0,0-.74,3.24,8.33,8.33,0,0,1-7.07,11.78c-3.53.22-6.41-1-8.07-4.19a8.12,8.12,0,0,1,.69-9.35c2.67-3.4,6.42-4.41,10.36-2.49a2.68,2.68,0,0,0,3.67-.68q16.71-16.86,33.48-33.66C144.71,104.25,145.4,103.91,145.25,103.06Zm10-117c0-3.55-2.36-6.06-5.68-6.09A6.28,6.28,0,0,0,143.37-14a6.22,6.22,0,0,0,6,6.22C152.84-7.72,155.27-10.3,155.26-14Z"/>
        <path class="cls-2" d="M422.63,100.8a6.06,6.06,0,0,1-.4-3.07c0-20.48,0-41,0-61.44a7.75,7.75,0,0,1,2.47-6c10-10,19.62-20.32,29.79-30.11,1.73-1.66,2-3.51,2-5.65q0-54.75,0-109.5c0-5.59-.19-11.2,0-16.78.56-13.45.45-26.9.5-40.36a3.14,3.14,0,0,1,.54-2.3c.78.91.55,1.88.55,2.74,0,9.2-.15,18.4.07,27.59,1.1,46.35.17,92.7.58,139.05a9.41,9.41,0,0,1-3.08,7.47c-9.69,9.49-19.19,19.16-28.82,28.7a7.1,7.1,0,0,0-2.31,5.5c.07,18.67,0,37.35.07,56a4.25,4.25,0,0,0,.59,3.08c2.43-2.29,4.74-4.58,6.95-7,1-1.12,2-2.3,3.05-3.37q27-27.06,54.13-54a9,9,0,0,0,2.92-7q0-89.73.06-179.46c0-1,0-2.08.08-3.12,0-.4.25-.76.7-.68a1,1,0,0,1,.58.54,9.37,9.37,0,0,1,.25,3.38l.06,77.64q0,51.63.1,103.24a8.66,8.66,0,0,1-2.74,6.76q-33,32.93-65.94,66A6.34,6.34,0,0,1,422.63,100.8Z"/>
        <path class="cls-2" d="M396.64,225.85c1.3.09,1.82,1.11,2.53,1.8,7.06,7,14,14.12,21.16,21.07a8,8,0,0,1,2.6,6.24q-.09,45.5,0,91a24.29,24.29,0,0,1,0,2.56c-.2,2,.58,3,2.46,3.85a8.32,8.32,0,0,1,4.07,11.9,8.61,8.61,0,0,1-12,3.26c-5.57-3.09-5.56-11.14,0-14.65a6.27,6.27,0,0,1,1.26-.65,2.55,2.55,0,0,0,1.74-2.91c0-.56,0-1.13,0-1.7q0-45.79.07-91.58a7.87,7.87,0,0,0-2.57-6.24c-5.45-5.27-10.75-10.7-16.13-16.05-.71-.71-1.26-1.66-2.53-1.95-.65.92-.39,2-.39,3,0,7.39,0,14.79,0,22.18q0,59,0,118a16.24,16.24,0,0,1,0,1.71,3.7,3.7,0,0,0,2.64,4.38c5.31,2.06,6.86,9.86,2,14.2-2.71,2.41-5.8,2.61-9,1.52a7.61,7.61,0,0,1-5.26-6.8,8.21,8.21,0,0,1,3.71-8.35,8.69,8.69,0,0,1,1.5-.81,2.58,2.58,0,0,0,1.66-2.7c0-1,0-2.09,0-3.13q0-72.52,0-145C396.14,228.59,395.81,227.14,396.64,225.85Zm31.22,134.47a6.1,6.1,0,0,0-5.73-6.23,6,6,0,0,0-6.13,5.8,5.94,5.94,0,1,0,11.86.43Z"/>
        <path class="cls-2" d="M136.73,459.38c0,4.13-2.77,7.4-7.25,8.26A8.63,8.63,0,0,1,123.42,452a12,12,0,0,1,1.5-.81,2.49,2.49,0,0,0,1.54-2.49c0-.85,0-1.71,0-2.56,0-17.16-.24-34.32.06-51.47.54-29.66.19-59.33.43-89a9,9,0,0,0-3.09-7.47c-3-2.7-5.73-5.8-8.72-8.57a7.41,7.41,0,0,1-2.51-6c.09-17.82.08-35.64.06-53.46,0-6.64.64-4.85-4-9.58-5.32-5.41-10.86-10.61-16-16.18-7.51-8.17-15.59-15.77-23.25-23.78-1.49-1.55-2.82-2.38-5.18-1.6-3.15,1-6.55-.56-8.39-3.32A8.51,8.51,0,0,1,56,165.57c1.61-2.26,5.41-3.42,8.42-2.91a8.13,8.13,0,0,1,5.8,11.63c-.9,1.83-.5,2.79.79,4.13,11.46,11.86,23.08,23.54,34.67,35.27,2.73,2.75,5.27,5.7,8,8.42a5,5,0,0,1,1.3,3.9c0,5.22,0,10.43,0,15.64,0,13.46.06,26.92,0,40.38a7.44,7.44,0,0,0,2.49,6c3.26,3,6.27,6.33,9.51,9.39a6.94,6.94,0,0,1,2.31,5.5c-.07,16.21,0,32.42,0,48.63q0,46.92,0,93.84a19.1,19.1,0,0,1,0,2.27c-.21,1.87.55,2.92,2.32,3.68C135,452.76,136.79,455.39,136.73,459.38ZM62.83,177a6.46,6.46,0,0,0,6.11-6.23,6.23,6.23,0,0,0-12.45,0A6.32,6.32,0,0,0,62.83,177Z"/>
        <path class="cls-2" d="M92.5,802c0,9,0,18,0,27a6.69,6.69,0,0,1-2.19,5.26c-6.7,6.58-13.27,13.28-20,19.86-1.49,1.46-2.15,2.61-1.22,4.85a8.27,8.27,0,0,1-4.92,10.92A8.71,8.71,0,0,1,57.14,854a8.48,8.48,0,0,1,6.9-.27,2.88,2.88,0,0,0,3.48-.89q10.2-10.3,20.51-20.52a4.86,4.86,0,0,0,1.5-3.8q0-26.6,0-53.19a4.94,4.94,0,0,0-1.84-4.23l-.2-.2Q66,749.37,44.58,727.77a7,7,0,0,0-5.5-2.29c-10.33.1-20.66.08-31,0-2,0-3.22.4-4.33,2.33A8.46,8.46,0,0,1-6.39,731.5,8.68,8.68,0,0,1-12.27,723a9,9,0,0,1,7.14-8.17A8.41,8.41,0,0,1,4.29,720c.82,2.13,2,2.58,4,2.57,10.52-.07,21,0,31.57-.07a7.65,7.65,0,0,1,6,2.41q22.18,22.46,44.56,44.74a6.52,6.52,0,0,1,2,5c-.06,9.11,0,18.21,0,27.31Zm-96-72.67a6.06,6.06,0,0,0,6-5.93c0-3-3.09-6.21-5.92-6.22a6.51,6.51,0,0,0-6.12,6.29A6,6,0,0,0-3.55,729.33Z"/>
        <path class="cls-2" d="M9.72,737.57c-6.73,0-13.47.06-20.2,0a6,6,0,0,0-4.76,2q-7.72,8-15.6,15.77c-1.31,1.29-1.8,2.41-.93,4.2a8.32,8.32,0,0,1-5.35,11.36c-5.86,1.49-10.14-1.65-11.23-6.34A8.85,8.85,0,0,1-41.2,754a7.63,7.63,0,0,1,4.46.47c1.49.63,2.43.13,3.48-.95,5.44-5.55,11-11,16.41-16.57a6.13,6.13,0,0,1,4.75-2q21.75.11,43.51,0a6.16,6.16,0,0,1,4.74,2q20.57,20.65,41.24,41.22a6.44,6.44,0,0,1,2,5c-.09,5.5,0,11,0,16.5a3.92,3.92,0,0,0,2.12,3.91,8,8,0,0,1,4.32,7.47c-.11,4.33-2.72,7.76-6.68,8.32-5.44.78-8.69-1.38-10.22-6a8.05,8.05,0,0,1,4.76-10.06c2.43-.89,2.83-2.21,2.78-4.42-.11-4.93-.09-9.86,0-14.79a5.74,5.74,0,0,0-1.82-4.53Q54.48,759.58,34.43,739.4a5.83,5.83,0,0,0-4.52-1.86C23.18,737.62,16.45,737.57,9.72,737.57Zm67.45,79.37a5.76,5.76,0,0,0,6-5.8,6,6,0,0,0-5.88-6A5.52,5.52,0,0,0,71.47,811C71.43,814.58,73.68,816.93,77.17,816.94Z"/>
        <path class="cls-2" d="M60.5,143.46A8.52,8.52,0,0,1,52,137.18a8.32,8.32,0,0,1,4.22-9.88c2.5-1.13,2.91-2.7,2.88-5.09-.09-9,0-18-.08-27a8.5,8.5,0,0,1,2.75-6.75C77.5,72.92,93.05,57.24,108.74,41.7a8.24,8.24,0,0,0,2.64-6.49c-.09-17.06,0-34.12,0-51.18,0-.75,0-1.51,0-2.27a2,2,0,0,0-1.7-2.21A7.91,7.91,0,0,1,104.52-25a8.55,8.55,0,0,1,4-11.33,8.66,8.66,0,0,1,11.3,3.66c2.2,4.06.86,9.55-3.33,11.5-2.39,1.12-2.77,2.54-2.76,4.82.08,17.63,0,35.26.1,52.88a7.94,7.94,0,0,1-2.6,6.23Q98.6,55.18,86.13,67.85C78.71,75.43,71.4,83.12,63.8,90.52a6.14,6.14,0,0,0-1.88,4.82c0,9.1.07,18.2,0,27.29,0,2.2.45,3.63,2.69,4.68a8.57,8.57,0,0,1-4.1,16.15ZM118.26-28.38a6.05,6.05,0,0,0-5.72-6.23,6,6,0,0,0-6.19,5.74,6.16,6.16,0,0,0,5.87,6.44A6.09,6.09,0,0,0,118.26-28.38Z"/>
        <path class="cls-2" d="M63.48,803c0,4.55-.07,9.1,0,13.65a6.4,6.4,0,0,1-2.1,5q-20,19.85-39.84,39.79c-.53.53-1,1.1-1.61,1.6a2.11,2.11,0,0,0-.57,3,7.92,7.92,0,0,1,1,3.81,8.21,8.21,0,0,1-8.08,8.79,8.47,8.47,0,0,1-9.17-8.08,8.9,8.9,0,0,1,8.24-9.19,8.18,8.18,0,0,1,3.33.62,2.33,2.33,0,0,0,2.8-.7c.38-.42.81-.8,1.21-1.2q19.71-19.71,39.45-39.38A7.28,7.28,0,0,0,60.55,815c-.12-8.24-.08-16.49,0-24.74A5.47,5.47,0,0,0,58.79,786q-11.58-11.55-23-23.21c-1.39-1.41-2.56-2.09-4.69-1.28-3.63,1.38-7.78-.35-9.89-3.66a8.52,8.52,0,0,1,1.11-10.48A8.81,8.81,0,0,1,33,745.62c3.34,1.86,5.4,6,4,9.73-1.09,2.87-.19,4.36,1.74,6.26,7.65,7.5,15.1,15.2,22.71,22.73a6.66,6.66,0,0,1,2.12,5.3C63.42,794.09,63.48,798.55,63.48,803ZM11.83,876.1a6.06,6.06,0,0,0,6-5.93c0-3.07-2.93-6.18-5.86-6.21a6.38,6.38,0,0,0-6.08,6.25A5.87,5.87,0,0,0,11.83,876.1Z"/>
        <path class="cls-2" d="M483.75,9.65c0,3.46-2.63,6.61-7.27,7.33a8.39,8.39,0,0,1-8.94-5.93A8.26,8.26,0,0,1,472.15.91c1.77-.76,2.55-1.77,2.39-3.64-.06-.75,0-1.51,0-2.27q0-75.21.08-150.43a16.07,16.07,0,0,1,0-1.7,3.4,3.4,0,0,0-2.47-3.91c-3-1.22-4.43-3.7-4.68-6.88-.15-2,.67-2.72,2.52-2.12a37.47,37.47,0,0,1,3.9,1.71l5.42,2.51c2.24,1,2.44,2.81.5,4.33a1.83,1.83,0,0,1-.73.43c-2.71.54-2.87,2.45-2.86,4.73q.11,76.22.12,152.42a3.47,3.47,0,0,1,0,.56c-.28,2.19.55,3.49,2.7,4.31C482.32,2.2,483.79,4.84,483.75,9.65Zm-14.27-1a6.27,6.27,0,0,0,6.09,6.19,6.81,6.81,0,0,0,6.28-6.49,6.3,6.3,0,0,0-6.07-5.93A6.11,6.11,0,0,0,469.48,8.62Z"/>
    </g>
    <path class="cls-1" d="M5.26,3.47H226.35q106,0,172,20t111.21,88.38q45.1,68.4,45.13,164.64,0,88.38-36.59,151.89T419.86,520q-61.73,28.17-189.75,28.16H153.7V896.53H5.26ZM153.7,118.39V429.65h72.92q97.64,0,135.07-36.61t37.42-119q0-61.44-24.74-99.72T320,127.22q-29.62-8.81-93.39-8.83Z"/>
</svg>